<svg width="166" height="31" viewBox="0 0 166 31" fill="none" xmlns="http://www.w3.org/2000/svg">
<path opacity="0.24" d="M0.785715 0.0428542H5.15714V26.3571H20.3286V30H0.785715V0.0428542ZM36.989 30.6429C32.9032 30.6429 29.8175 29.6 27.7318 27.5143C25.6461 25.4 24.6032 22.5 24.6032 18.8143V0.0428542H28.9747V18.9857C28.9747 21.5286 29.689 23.4571 31.1175 24.7714C32.5461 26.0571 34.5032 26.7 36.989 26.7C39.4461 26.7 41.389 26.0571 42.8175 24.7714C44.2461 23.4571 44.9604 21.5286 44.9604 18.9857V0.0428542H49.3318V18.8143C49.3318 22.4714 48.289 25.3571 46.2032 27.4714C44.1175 29.5857 41.0461 30.6429 36.989 30.6429ZM56.8432 0.0428542H61.2146L71.886 23.4L82.5575 0.0428542H86.9289V30H82.686V8.7L72.9575 30H70.8146L61.0432 8.7V30H56.8432V0.0428542ZM94.6445 0.0428542H99.0588V30H94.6445V0.0428542ZM106.79 0.0428542H110.947L126.204 22.6286V0.0428542H130.619V30H126.419L111.162 7.41428V30H106.79V0.0428542ZM149.414 0.0428542H153.614L165.571 30H161.114L158.114 22.5429H144.871L141.956 30H137.456L149.414 0.0428542ZM156.914 18.9L151.514 4.88571L146.114 18.9H156.914Z" fill="#E61F7F"/>
</svg>
