<svg width="189" height="30" viewBox="0 0 189 30" fill="none" xmlns="http://www.w3.org/2000/svg">
<path opacity="0.24" d="M8.45714 2.74286L8.02857 27.0857L11.6286 27.4286C11.6286 28.2286 11.3857 29.0857 10.9 30H1.04286L0.914286 28.5C2.22857 28.0429 3.52857 27.7 4.81429 27.4714C4.75714 25.6143 4.65714 21.7857 4.51429 15.9857C4.4 10.1857 4.3 5.7 4.21429 2.52857C3.07143 2.3 1.78571 1.95714 0.357143 1.5L0.485714 -2.42506e-06H11.2C11.6857 0.914283 11.9286 1.77143 11.9286 2.57143C10.4714 2.68571 9.31429 2.74286 8.45714 2.74286ZM25.7664 5.31428L25.3378 27.0857L28.9378 27.4286C28.9378 28.2286 28.695 29.0857 28.2093 30H18.3521L18.2235 28.5C19.7664 27.9857 21.0807 27.6429 22.1664 27.4714C22.1093 25.6143 22.0093 21.7857 21.8664 15.9857C21.7521 10.1857 21.6521 5.7 21.5664 2.52857C20.4807 2.35714 19.195 2.01428 17.7093 1.5L17.8378 -2.42506e-06H26.3236L41.9664 24.9857L41.2378 2.52857C40.1807 2.32857 38.9093 1.98571 37.4236 1.5L37.5521 -2.42506e-06H48.2664C48.7521 0.914283 48.995 1.77143 48.995 2.57143C47.5664 2.68571 46.4236 2.74286 45.5664 2.74286L45.1378 30H40.9807L25.7664 5.31428ZM61.3017 20.7857L61.1731 27.0857L64.7731 27.4286C64.7731 28.2286 64.5302 29.0857 64.0445 30H54.1874L54.0588 28.5C55.4017 28.0429 56.716 27.7 58.0017 27.4714C57.716 16.3857 57.4874 8.07143 57.316 2.52857C56.2588 2.32857 54.9874 1.98571 53.5017 1.5L53.6302 -2.42506e-06H64.3445C64.8302 0.914283 65.0731 1.77143 65.0731 2.57143C63.6445 2.68571 62.5017 2.74286 61.6445 2.74286C61.5874 5.71428 61.5302 8.4 61.4731 10.8C61.4445 13.2 61.416 14.8857 61.3874 15.8571L71.6302 2.91428L68.2017 2.57143C68.2017 1.77143 68.4445 0.914283 68.9302 -2.42506e-06H79.816L79.9445 1.88571C78.6302 2.34286 77.3445 2.68571 76.0874 2.91428L67.6445 13.0714L77.5017 27.0857L81.1017 27.4286C81.1017 28.2286 80.8588 29.0857 80.3731 30H75.016L65.2874 15.9857L61.3017 20.7857ZM107.561 23.2714C107.647 23.4429 107.761 24.1 107.904 25.2429C108.075 26.3857 108.161 27.3571 108.161 28.1571C108.161 28.9286 108.118 29.5429 108.032 30H87.6752L87.5467 28.5C88.8895 28.0143 90.1038 27.6857 91.1895 27.5143C91.0181 16.2571 90.8752 7.95714 90.7609 2.61428C90.0181 2.5 88.7609 2.15714 86.9895 1.58571L87.2038 -2.42506e-06H97.5324C98.0181 0.799998 98.2609 1.64285 98.2609 2.52857C96.7181 2.58571 95.6038 2.62857 94.9181 2.65714C94.8609 8.14286 94.8038 13.1429 94.7467 17.6571C94.7181 22.1429 94.6895 25.3 94.6609 27.1286H104.047L105.075 23.0571C106.504 23.0571 107.332 23.1286 107.561 23.2714ZM121.995 2.74286L121.567 27.0857L125.167 27.4286C125.167 28.2286 124.924 29.0857 124.438 30H114.581L114.452 28.5C115.767 28.0429 117.067 27.7 118.352 27.4714C118.295 25.6143 118.195 21.7857 118.052 15.9857C117.938 10.1857 117.838 5.7 117.752 2.52857C116.609 2.3 115.324 1.95714 113.895 1.5L114.024 -2.42506e-06H124.738C125.224 0.914283 125.467 1.77143 125.467 2.57143C124.009 2.68571 122.852 2.74286 121.995 2.74286ZM139.304 5.31428L138.876 27.0857L142.476 27.4286C142.476 28.2286 142.233 29.0857 141.747 30H131.89L131.762 28.5C133.304 27.9857 134.619 27.6429 135.704 27.4714C135.647 25.6143 135.547 21.7857 135.404 15.9857C135.29 10.1857 135.19 5.7 135.104 2.52857C134.019 2.35714 132.733 2.01428 131.247 1.5L131.376 -2.42506e-06H139.862L155.504 24.9857L154.776 2.52857C153.719 2.32857 152.447 1.98571 150.962 1.5L151.09 -2.42506e-06H161.804C162.29 0.914283 162.533 1.77143 162.533 2.57143C161.104 2.68571 159.962 2.74286 159.104 2.74286L158.676 30H154.519L139.304 5.31428ZM175.097 2.95714L174.882 13.2857H181.654L181.997 10.2C182.797 10.2 183.654 10.4429 184.568 10.9286V19.0714L183.068 19.2C182.64 17.9714 182.354 16.9429 182.211 16.1143H174.882C174.825 18.6 174.768 22.2714 174.711 27.1286H184.525L185.554 23.1L188.04 23.2714C188.44 24.9 188.64 26.3429 188.64 27.6C188.64 28.8286 188.611 29.6286 188.554 30H167.725L167.597 28.5C168.854 28.0429 170.068 27.7143 171.24 27.5143C171.068 16.3714 170.925 8.08571 170.811 2.65714C170.182 2.6 168.925 2.25714 167.04 1.62857L167.254 -2.42506e-06H187.911C187.968 0.371426 187.997 0.942855 187.997 1.71428C187.997 3.28571 187.797 4.98571 187.397 6.81429C186.768 6.95714 185.94 7.02857 184.911 7.02857L183.882 2.95714H175.097Z" fill="#E61F7F"/>
</svg>
