<svg width="231" height="31" viewBox="0 0 231 31" fill="none" xmlns="http://www.w3.org/2000/svg">
<path opacity="0.24" d="M0.785715 0.0428542H5.15714V12.9H20.8V0.0428542H25.1714V30H20.8V16.5857H5.15714V30H0.785715V0.0428542ZM41.6379 18.6429L30.7522 0.0428542H35.4237L43.7808 14.4857L52.2665 0.0428542H56.8951L45.8808 18.6429V30H41.6379V18.6429ZM62.4749 0.0428542H72.1177C75.3463 0.0428542 78.1463 0.642855 80.5177 1.84286C82.8892 3.04286 84.7035 4.75714 85.9606 6.98571C87.2463 9.21428 87.8892 11.8429 87.8892 14.8714C87.8892 19.8429 86.4463 23.6143 83.5606 26.1857C80.7035 28.7286 76.6892 30 71.5177 30H62.4749V0.0428542ZM71.4749 26.3571C75.4749 26.3571 78.4749 25.3714 80.4749 23.4C82.4749 21.4286 83.4749 18.5857 83.4749 14.8714C83.4749 11.4429 82.4892 8.72857 80.5177 6.72857C78.5749 4.72857 75.7892 3.72857 72.1606 3.72857H66.8463V26.3571H71.4749ZM93.466 0.0428542H105.509C108.709 0.0428542 111.166 0.814283 112.88 2.35714C114.595 3.9 115.452 6.15714 115.452 9.12857C115.452 11.3286 114.866 13.2 113.695 14.7429C112.523 16.2571 110.866 17.2857 108.723 17.8286L115.323 30H110.78L104.395 18.1714H97.8374V30H93.466V0.0428542ZM104.78 14.4857C106.695 14.4857 108.209 14.0429 109.323 13.1571C110.466 12.2429 111.037 10.9 111.037 9.12857C111.037 7.18571 110.48 5.8 109.366 4.97143C108.28 4.14286 106.752 3.72857 104.78 3.72857H97.8374V14.4857H104.78ZM130.2 0.0428542H134.4L146.357 30H141.9L138.9 22.5429H125.657L122.743 30H118.243L130.2 0.0428542ZM137.7 18.9L132.3 4.88571L126.9 18.9H137.7ZM151.932 0.0428542H156.304V26.3571H171.475V30H151.932V0.0428542ZM186.85 30.6429C182.764 30.6429 179.679 29.6 177.593 27.5143C175.507 25.4 174.464 22.5 174.464 18.8143V0.0428542H178.836V18.9857C178.836 21.5286 179.55 23.4571 180.979 24.7714C182.407 26.0571 184.364 26.7 186.85 26.7C189.307 26.7 191.25 26.0571 192.679 24.7714C194.107 23.4571 194.821 21.5286 194.821 18.9857V0.0428542H199.193V18.8143C199.193 22.4714 198.15 25.3571 196.064 27.4714C193.979 29.5857 190.907 30.6429 186.85 30.6429ZM214.702 14.7857L203.902 0.0428542H208.916L217.23 11.3571L225.545 0.0428542H230.559L219.716 14.7857L230.945 30H225.93L217.23 18.1714L208.53 30H203.516L214.702 14.7857Z" fill="#E61F7F"/>
</svg>
