<svg width="181" height="30" viewBox="0 0 181 30" fill="none" xmlns="http://www.w3.org/2000/svg">
<path opacity="0.24" d="M14.0468 25.985C15.5468 25.985 16.7768 25.865 17.7368 25.625C18.7268 25.385 19.7018 25.04 20.6618 24.59L21.6068 27.92C20.5568 28.43 19.4018 28.805 18.1418 29.045C16.9118 29.285 15.3968 29.405 13.5968 29.405C11.7368 29.405 9.98178 29.09 8.33178 28.46C6.68178 27.83 5.24178 26.9 4.01178 25.67C2.81178 24.44 1.85178 22.925 1.13178 21.125C0.441777 19.295 0.0967774 17.195 0.0967774 14.825C0.0967774 12.515 0.441777 10.46 1.13178 8.66C1.82178 6.83 2.76678 5.3 3.96678 4.07C5.19678 2.81 6.65178 1.865 8.33178 1.235C10.0118 0.574998 11.8418 0.244997 13.8218 0.244997C15.6818 0.244997 17.2118 0.394998 18.4118 0.695C19.6118 0.994999 20.7218 1.4 21.7418 1.91L20.7518 5.15C20.1818 4.91 19.6418 4.7 19.1318 4.52C18.6518 4.31 18.1568 4.145 17.6468 4.025C17.1668 3.905 16.6568 3.815 16.1168 3.755C15.6068 3.695 15.0218 3.665 14.3618 3.665C13.0418 3.665 11.7818 3.875 10.5818 4.295C9.41178 4.685 8.37678 5.33 7.47678 6.23C6.60678 7.13 5.90178 8.3 5.36178 9.74C4.85178 11.15 4.59678 12.86 4.59678 14.87C4.59678 16.91 4.85178 18.635 5.36178 20.045C5.87178 21.455 6.54678 22.595 7.38678 23.465C8.25678 24.335 9.26178 24.98 10.4018 25.4C11.5418 25.79 12.7568 25.985 14.0468 25.985ZM28.619 29V0.649998H32.759V12.575H46.214V0.649998H50.354V29H46.214V16.085H32.759V29H28.619ZM59.7411 0.649998H68.9661C70.4361 0.649998 71.7261 0.859998 72.8361 1.28C73.9761 1.7 74.9211 2.285 75.6711 3.035C76.4211 3.785 76.9911 4.685 77.3811 5.735C77.7711 6.755 77.9661 7.88 77.9661 9.11C77.9661 10.19 77.8011 11.165 77.4711 12.035C77.1411 12.905 76.7061 13.67 76.1661 14.33C75.6261 14.96 74.9961 15.515 74.2761 15.995C73.5861 16.445 72.8811 16.82 72.1611 17.12L79.6311 29H74.9961L68.2911 17.885H63.6561V29H59.7411V0.649998ZM63.6561 14.51H67.0761C68.0061 14.51 68.8611 14.42 69.6411 14.24C70.4511 14.03 71.1411 13.73 71.7111 13.34C72.3111 12.92 72.7761 12.38 73.1061 11.72C73.4661 11.06 73.6461 10.265 73.6461 9.335C73.6461 7.505 73.1361 6.155 72.1161 5.285C71.1261 4.415 69.6711 3.98 67.7511 3.98H63.6561V14.51ZM98.086 0.244997C100.006 0.244997 101.776 0.559998 103.396 1.19C105.016 1.79 106.411 2.705 107.581 3.935C108.781 5.135 109.711 6.65 110.371 8.48C111.031 10.28 111.361 12.395 111.361 14.825C111.361 17.195 111.016 19.295 110.326 21.125C109.636 22.925 108.691 24.44 107.491 25.67C106.291 26.9 104.866 27.83 103.216 28.46C101.596 29.09 99.826 29.405 97.906 29.405C95.986 29.405 94.216 29.105 92.596 28.505C90.976 27.875 89.566 26.96 88.366 25.76C87.196 24.53 86.281 23.015 85.621 21.215C84.961 19.385 84.631 17.255 84.631 14.825C84.631 12.455 84.976 10.37 85.666 8.57C86.356 6.74 87.301 5.21 88.501 3.98C89.701 2.75 91.111 1.82 92.731 1.19C94.381 0.559998 96.166 0.244997 98.086 0.244997ZM89.131 14.825C89.131 16.745 89.356 18.41 89.806 19.82C90.286 21.23 90.931 22.4 91.741 23.33C92.551 24.26 93.496 24.95 94.576 25.4C95.686 25.85 96.856 26.075 98.086 26.075C99.316 26.075 100.456 25.85 101.506 25.4C102.586 24.95 103.516 24.26 104.296 23.33C105.106 22.4 105.736 21.23 106.186 19.82C106.636 18.41 106.861 16.745 106.861 14.825C106.861 12.845 106.621 11.15 106.141 9.74C105.691 8.33 105.061 7.175 104.251 6.275C103.441 5.345 102.481 4.67 101.371 4.25C100.291 3.8 99.136 3.575 97.906 3.575C96.676 3.575 95.521 3.8 94.441 4.25C93.361 4.7 92.431 5.39 91.651 6.32C90.871 7.25 90.256 8.42 89.806 9.83C89.356 11.24 89.131 12.905 89.131 14.825ZM120.926 0.649998H126.326L132.266 18.74C132.566 19.61 132.851 20.465 133.121 21.305C133.391 22.115 133.646 22.94 133.886 23.78H133.976C134.216 22.94 134.456 22.13 134.696 21.35C134.966 20.57 135.266 19.7 135.596 18.74L141.401 0.649998H146.801L149.276 29H145.136L143.966 13.97C143.846 12.5 143.756 11.045 143.696 9.605C143.636 8.135 143.576 6.65 143.516 5.15H143.426C143.006 6.62 142.571 8.09 142.121 9.56C141.701 11.03 141.251 12.5 140.771 13.97L135.776 29H131.996L127.001 13.925C126.491 12.395 126.026 10.94 125.606 9.56C125.186 8.15 124.766 6.68 124.346 5.15H124.256C124.196 6.62 124.106 8.09 123.986 9.56C123.896 11.03 123.791 12.5 123.671 13.97L122.591 29H118.541L120.926 0.649998ZM165.905 0.649998H169.595L180.89 29H176.57L173.465 21.125H161.81L158.75 29H154.475L165.905 0.649998ZM162.935 17.84H172.25L170.36 12.935C169.85 11.645 169.385 10.4 168.965 9.2C168.545 8 168.125 6.77 167.705 5.51H167.615C167.195 6.77 166.76 7.985 166.31 9.155C165.86 10.325 165.38 11.585 164.87 12.935L162.935 17.84Z" fill="#E61F7F"/>
</svg>
