<svg width="215" height="31" viewBox="0 0 215 31" fill="none" xmlns="http://www.w3.org/2000/svg">
<path opacity="0.24" d="M0.957143 30.4286L14.5429 0.428586H18.7857L32.4143 30.4286H27.9143L15.7857 2.82859H17.5L5.37143 30.4286H0.957143ZM6.74286 22.9286L7.9 19.5H24.7857L26.0286 22.9286H6.74286ZM37.3181 30.4286V0.428586H49.0181C51.6467 0.428586 53.8895 0.842873 55.7467 1.67145C57.6038 2.50002 59.0324 3.70002 60.0324 5.27145C61.0324 6.84287 61.5324 8.7143 61.5324 10.8857C61.5324 13.0572 61.0324 14.9286 60.0324 16.5C59.0324 18.0429 57.6038 19.2286 55.7467 20.0572C53.8895 20.8857 51.6467 21.3 49.0181 21.3H39.6752L41.6038 19.3286V30.4286H37.3181ZM57.3752 30.4286L49.7467 19.5429H54.3324L62.0467 30.4286H57.3752ZM41.6038 19.7572L39.6752 17.6572H48.8895C51.6324 17.6572 53.7038 17.0714 55.1038 15.9C56.5324 14.7 57.2467 13.0286 57.2467 10.8857C57.2467 8.74287 56.5324 7.08573 55.1038 5.9143C53.7038 4.74287 51.6324 4.15716 48.8895 4.15716H39.6752L41.6038 2.0143V19.7572ZM74.4237 30.4286V4.15716H64.1379V0.428586H88.9522V4.15716H78.6665V30.4286H74.4237ZM94.0485 30.4286V0.428586H98.3343V30.4286H94.0485ZM116.487 30.7714C114.202 30.7714 112.016 30.4286 109.93 29.7429C107.844 29.0286 106.202 28.1143 105.002 27L106.587 23.6572C107.73 24.6572 109.187 25.4857 110.959 26.1429C112.73 26.8 114.573 27.1286 116.487 27.1286C118.23 27.1286 119.644 26.9286 120.73 26.5286C121.816 26.1286 122.616 25.5857 123.13 24.9C123.644 24.1857 123.902 23.3857 123.902 22.5C123.902 21.4714 123.559 20.6429 122.873 20.0143C122.216 19.3857 121.344 18.8857 120.259 18.5143C119.202 18.1143 118.03 17.7714 116.744 17.4857C115.459 17.2 114.159 16.8714 112.844 16.5C111.559 16.1 110.373 15.6 109.287 15C108.23 14.4 107.373 13.6 106.716 12.6C106.059 11.5714 105.73 10.2572 105.73 8.65716C105.73 7.1143 106.13 5.70002 106.93 4.4143C107.759 3.10001 109.016 2.05716 110.702 1.28573C112.416 0.485731 114.587 0.0857312 117.216 0.0857312C118.959 0.0857312 120.687 0.314302 122.402 0.771444C124.116 1.22859 125.602 1.88573 126.859 2.74287L125.444 6.17144C124.159 5.3143 122.802 4.70002 121.373 4.32859C119.944 3.92859 118.559 3.72859 117.216 3.72859C115.53 3.72859 114.144 3.94287 113.059 4.37144C111.973 4.80001 111.173 5.37144 110.659 6.08573C110.173 6.80002 109.93 7.60002 109.93 8.48573C109.93 9.54287 110.259 10.3857 110.916 11.0143C111.602 11.6429 112.473 12.1429 113.53 12.5143C114.616 12.8857 115.802 13.2286 117.087 13.5429C118.373 13.8286 119.659 14.1572 120.944 14.5286C122.259 14.9 123.444 15.3857 124.502 15.9857C125.587 16.5857 126.459 17.3857 127.116 18.3857C127.773 19.3857 128.102 20.6714 128.102 22.2429C128.102 23.7572 127.687 25.1714 126.859 26.4857C126.03 27.7714 124.744 28.8143 123.002 29.6143C121.287 30.3857 119.116 30.7714 116.487 30.7714ZM140.33 30.4286V4.15716H130.044V0.428586H154.858V4.15716H144.573V30.4286H140.33ZM159.955 30.4286V0.428586H171.655C174.283 0.428586 176.526 0.842873 178.383 1.67145C180.241 2.50002 181.669 3.70002 182.669 5.27145C183.669 6.84287 184.169 8.7143 184.169 10.8857C184.169 13.0572 183.669 14.9286 182.669 16.5C181.669 18.0429 180.241 19.2286 178.383 20.0572C176.526 20.8857 174.283 21.3 171.655 21.3H162.312L164.241 19.3286V30.4286H159.955ZM180.012 30.4286L172.383 19.5429H176.969L184.683 30.4286H180.012ZM164.241 19.7572L162.312 17.6572H171.526C174.269 17.6572 176.341 17.0714 177.741 15.9C179.169 14.7 179.883 13.0286 179.883 10.8857C179.883 8.74287 179.169 7.08573 177.741 5.9143C176.341 4.74287 174.269 4.15716 171.526 4.15716H162.312L164.241 2.0143V19.7572ZM198.346 30.4286V18.9429L199.332 21.6L186.432 0.428586H191.018L201.86 18.3H199.375L210.26 0.428586H214.503L201.646 21.6L202.589 18.9429V30.4286H198.346Z" fill="#E61F7F"/>
</svg>
