<svg width="218" height="31" viewBox="0 0 218 31" fill="none" xmlns="http://www.w3.org/2000/svg">
<path opacity="0.24" d="M26.3 0.428586V30.4286H22.0143V17.0572H4.78571V30.4286H0.5V0.428586H4.78571V13.3286H22.0143V0.428586H26.3ZM48.3081 0.0857312C52.3081 0.0857312 55.4653 1.25716 57.7796 3.60002C60.0939 5.9143 61.251 9.24287 61.251 13.5857V30.4286H56.9653V22.1572H39.651V30.4286H35.451V13.5857C35.451 9.24287 36.6081 5.9143 38.9224 3.60002C41.2367 1.25716 44.3653 0.0857312 48.3081 0.0857312ZM56.9653 18.4286V13.2C56.9653 10.1429 56.1939 7.82859 54.651 6.25716C53.1367 4.68573 51.0224 3.90002 48.3081 3.90002C45.5939 3.90002 43.4653 4.68573 41.9224 6.25716C40.4081 7.82859 39.651 10.1429 39.651 13.2V18.4286H56.9653ZM77.8283 4.15716V26.7H83.6141V30.4286H67.7569V26.7H73.5426V4.15716H67.7569V0.428586H83.6141V4.15716H77.8283ZM110.445 30.4286L103.974 21.2143C103.174 21.2714 102.545 21.3 102.088 21.3H94.6735V30.4286H90.3878V0.428586H102.088C105.974 0.428586 109.031 1.35716 111.259 3.2143C113.488 5.07144 114.602 7.62859 114.602 10.8857C114.602 13.2 114.031 15.1714 112.888 16.8C111.745 18.4286 110.116 19.6143 108.002 20.3572L115.116 30.4286H110.445ZM101.959 17.6572C104.674 17.6572 106.745 17.0714 108.174 15.9C109.602 14.7286 110.316 13.0572 110.316 10.8857C110.316 8.7143 109.602 7.05716 108.174 5.9143C106.745 4.74287 104.674 4.15716 101.959 4.15716H94.6735V17.6572H101.959ZM133.893 0.428586H138.179V26.7H154.421V30.4286H133.893V0.428586ZM184.294 0.428586V30.4286H180.18V26.1857C178.151 29.2429 174.894 30.7714 170.408 30.7714C166.837 30.7714 164.037 29.6857 162.008 27.5143C160.008 25.3429 159.008 22.2429 159.008 18.2143V0.428586H163.294V18.0857C163.294 20.9714 164.008 23.1714 165.437 24.6857C166.866 26.2 168.823 26.9572 171.308 26.9572C173.994 26.9572 176.123 26.1572 177.694 24.5572C179.266 22.9572 180.051 20.5857 180.051 17.4429V0.428586H184.294ZM212.578 30.4286L203.578 18.0429L194.706 30.4286H189.778L201.049 15.0429L190.463 0.428586H195.349L203.749 11.9572L212.063 0.428586H216.735L206.149 14.9143L217.506 30.4286H212.578Z" fill="#E61F7F"/>
</svg>
