<svg width="117" height="315" viewBox="0 0 117 315" fill="none" xmlns="http://www.w3.org/2000/svg">
<g opacity="0.4">
<mask id="mask0_349_1139" style="mask-type:alpha" maskUnits="userSpaceOnUse" x="0" y="0" width="117" height="315">
<rect width="117" height="315" fill="#E61F7F"/>
</mask>
<g mask="url(#mask0_349_1139)">
<path d="M112.949 215.919H4.05125C2.97679 215.919 1.94634 216.349 1.18658 217.115C0.426823 217.88 0 218.918 0 220.001V382.041C0 386.804 1.87804 391.372 5.22096 394.74C8.56389 398.108 13.0979 400 17.8255 400H99.1745C103.902 400 108.436 398.108 111.779 394.74C115.122 391.372 117 386.804 117 382.041V220.001C117 218.918 116.573 217.88 115.813 217.115C115.054 216.349 114.023 215.919 112.949 215.919Z" fill="#FAEFF2"/>
<path d="M104.933 154.206C104.933 153.123 104.506 152.085 103.746 151.32C102.986 150.554 101.956 150.124 100.881 150.124H16.1294C15.0549 150.124 14.0245 150.554 13.2647 151.32C12.5049 152.085 12.0781 153.123 12.0781 154.206V207.756H104.933V154.206Z" fill="#FAEFF2"/>
<path d="M89.7816 48.5731C89.7523 47.9894 89.6432 47.4125 89.4575 46.8588C84.6788 34.6101 76.7891 23.8417 66.5789 15.6323C56.3686 7.42293 44.1964 2.06094 31.2816 0.0835035C30.6969 -0.0418761 30.0909 -0.0258699 29.5135 0.130214C28.9361 0.286298 28.4035 0.578014 27.9596 0.981457C27.5223 1.36847 27.1729 1.84588 26.9352 2.38118C26.6975 2.91647 26.5771 3.49709 26.5822 4.08349V141.961H89.7816V48.5731Z" fill="#FAEFF2"/>
</g>
</g>
</svg>
