<svg width="325" height="51" viewBox="0 0 325 51" fill="none" xmlns="http://www.w3.org/2000/svg">
<path d="M28.2825 50.8076C23.2727 50.8076 18.8323 49.8057 14.961 47.8017C11.0898 45.7523 8.08398 42.8603 5.94343 39.1257C3.80288 35.3456 2.73261 30.9506 2.73261 25.9409C2.73261 20.9311 3.80288 16.5589 5.94343 12.8243C8.08398 9.0442 11.0898 6.12942 14.961 4.07996C18.8323 2.0305 23.2727 1.00577 28.2825 1.00577C31.6983 1.00577 34.7497 1.37012 37.4368 2.09882C40.1239 2.82751 42.5604 3.98887 44.7465 5.5829V13.849C42.7426 12.1184 40.4427 10.8659 37.8467 10.0917C35.2507 9.31746 32.3131 8.93034 29.034 8.93034C25.7549 8.93034 22.7718 9.63627 20.0847 11.0481C17.4432 12.4144 15.3482 14.3956 13.7997 16.9915C12.2512 19.542 11.477 22.5251 11.477 25.9409C11.477 29.4022 12.2057 32.4308 13.6631 35.0268C15.1205 37.5772 17.1471 39.5584 19.7431 40.9702C22.3391 42.3365 25.2994 43.0197 28.6241 43.0197C32.131 43.0197 35.023 42.4276 37.3001 41.2435V30.518H29.2389V23.6181H45.9762V45.8889C41.7406 49.1681 35.8428 50.8076 28.2825 50.8076ZM54.8497 2.0305H63.5257V42.6098H86.4797V49.7829H54.8497V2.0305ZM114.235 50.8076C109.453 50.8076 105.126 49.7829 101.255 47.7334C97.4293 45.6384 94.4007 42.7009 92.1691 38.9208C89.983 35.1406 88.8899 30.814 88.8899 25.9409C88.8899 21.0677 89.983 16.7411 92.1691 12.9609C94.4007 9.18083 97.4293 6.24327 101.255 4.14827C105.126 2.05327 109.453 1.00577 114.235 1.00577C118.971 1.00577 123.253 2.05327 127.078 4.14827C130.949 6.24327 133.978 9.18083 136.164 12.9609C138.396 16.7411 139.512 21.0677 139.512 25.9409C139.512 30.814 138.396 35.1406 136.164 38.9208C133.978 42.6553 130.949 45.5701 127.078 47.6651C123.253 49.7601 118.971 50.8076 114.235 50.8076ZM114.235 42.9514C117.286 42.9514 120.064 42.2682 122.569 40.9019C125.074 39.4901 127.055 37.5089 128.513 34.9585C130.016 32.3625 130.767 29.3566 130.767 25.9409C130.767 22.5706 130.039 19.6103 128.581 17.0599C127.124 14.4639 125.143 12.46 122.638 11.0481C120.133 9.63627 117.332 8.93034 114.235 8.93034C111.138 8.93034 108.314 9.63627 105.764 11.0481C103.259 12.46 101.278 14.4639 99.8204 17.0599C98.363 19.6103 97.6343 22.5706 97.6343 25.9409C97.6343 29.3566 98.363 32.3625 99.8204 34.9585C101.323 37.5089 103.327 39.4901 105.832 40.9019C108.383 42.2682 111.183 42.9514 114.235 42.9514ZM142.576 2.0305H151.594L161.09 35.7783L170.449 2.0305H177.144L186.503 35.7783L195.999 2.0305H205.016L191.422 49.7829H183.36L173.796 16.5817L164.232 49.7829H156.171L142.576 2.0305ZM240.574 2.0305H272.887V9.27192H249.25V22.6617H266.807V29.1517H249.25V49.7829H240.574V2.0305ZM296.036 31.611L278.684 2.0305H287.906L300.203 23.2766L312.841 2.0305H321.996L304.302 31.611V49.7829H296.036V31.611Z" fill="#303030"/>
<path d="M227.576 27.3152H213.991C213.857 27.3152 213.728 27.3676 213.633 27.4609C213.539 27.5542 213.485 27.6807 213.485 27.8126V47.5613C213.485 48.1418 213.72 48.6985 214.137 49.109C214.554 49.5195 215.119 49.7501 215.709 49.7501H225.857C226.447 49.7501 227.013 49.5195 227.43 49.109C227.847 48.6985 228.081 48.1418 228.081 47.5613V27.8126C228.081 27.6807 228.028 27.5542 227.933 27.4609C227.838 27.3676 227.71 27.3152 227.576 27.3152Z" fill="#E61F7F"/>
<path d="M226.575 19.7938C226.575 19.6619 226.522 19.5354 226.427 19.4421C226.332 19.3488 226.203 19.2964 226.069 19.2964H215.497C215.363 19.2964 215.234 19.3488 215.139 19.4421C215.044 19.5354 214.991 19.6619 214.991 19.7938V26.3203H226.575V19.7938Z" fill="#E61F7F"/>
<path d="M224.685 6.91986C224.681 6.84872 224.668 6.77841 224.644 6.71093C224.048 5.21811 223.064 3.90571 221.79 2.90519C220.517 1.90467 218.998 1.25118 217.387 1.01018C217.314 0.994896 217.239 0.996847 217.166 1.01587C217.094 1.03489 217.028 1.07045 216.973 1.11962C216.918 1.16678 216.874 1.22497 216.845 1.29021C216.815 1.35545 216.8 1.42621 216.801 1.49768V18.3015H224.685V6.91986Z" fill="#E61F7F"/>
</svg>
