<svg width="160" height="230" viewBox="0 0 160 230" fill="none" xmlns="http://www.w3.org/2000/svg">
<path d="M54.9482 122.767H105.133C105.628 122.767 106.103 122.963 106.453 123.313C106.803 123.664 107 124.138 107 124.634V198.753C107 200.932 106.135 203.021 104.594 204.562C103.053 206.102 100.964 206.968 98.7852 206.968H61.296C59.1173 206.968 57.0279 206.102 55.4873 204.562C53.9467 203.021 53.0813 200.932 53.0813 198.753V124.634C53.0813 124.138 53.278 123.664 53.6281 123.313C53.9782 122.963 54.4531 122.767 54.9482 122.767Z" fill="#583FA8"/>
<path d="M58.6437 94.535C58.6437 94.0398 58.8404 93.5649 59.1905 93.2148C59.5407 92.8647 60.0156 92.668 60.5107 92.668H99.5682C100.063 92.668 100.538 92.8647 100.888 93.2148C101.238 93.5649 101.435 94.0398 101.435 94.535V119.03H58.6437V94.535Z" fill="#303030"/>
<path d="M65.627 46.2181C65.6405 45.9511 65.6908 45.6872 65.7763 45.4339C67.9786 39.8312 71.6145 34.9055 76.3198 31.1504C81.0252 27.3954 86.6347 24.9427 92.5864 24.0382C92.8558 23.9808 93.1351 23.9882 93.4012 24.0596C93.6673 24.131 93.9127 24.2644 94.1173 24.4489C94.3188 24.626 94.4798 24.8443 94.5894 25.0892C94.6989 25.334 94.7544 25.5996 94.7521 25.8678V88.9349H65.627V46.2181Z" fill="#E61F7F"/>
</svg>
