<svg width="191" height="30" viewBox="0 0 191 30" fill="none" xmlns="http://www.w3.org/2000/svg">
<path d="M16.56 29.6C13.6267 29.6 11.0267 29.0133 8.76 27.84C6.49333 26.64 4.73333 24.9467 3.48 22.76C2.22667 20.5467 1.6 17.9733 1.6 15.04C1.6 12.1067 2.22667 9.54667 3.48 7.36C4.73333 5.14667 6.49333 3.44 8.76 2.24C11.0267 1.04 13.6267 0.439998 16.56 0.439998C18.56 0.439998 20.3467 0.653332 21.92 1.08C23.4933 1.50667 24.92 2.18667 26.2 3.12V7.96C25.0267 6.94667 23.68 6.21333 22.16 5.76C20.64 5.30666 18.92 5.08 17 5.08C15.08 5.08 13.3333 5.49333 11.76 6.32C10.2133 7.12 8.98667 8.28 8.08 9.8C7.17333 11.2933 6.72 13.04 6.72 15.04C6.72 17.0667 7.14667 18.84 8 20.36C8.85333 21.8533 10.04 23.0133 11.56 23.84C13.08 24.64 14.8133 25.04 16.76 25.04C18.8133 25.04 20.5067 24.6933 21.84 24V17.72H17.12V13.68H26.92V26.72C24.44 28.64 20.9867 29.6 16.56 29.6ZM32.1156 1.04H37.1956V24.8H50.6356V29H32.1156V1.04ZM66.8869 29.6C64.0869 29.6 61.5535 29 59.2869 27.8C57.0469 26.5733 55.2735 24.8533 53.9669 22.64C52.6869 20.4267 52.0469 17.8933 52.0469 15.04C52.0469 12.1867 52.6869 9.65333 53.9669 7.44C55.2735 5.22667 57.0469 3.50667 59.2869 2.28C61.5535 1.05333 64.0869 0.439998 66.8869 0.439998C69.6602 0.439998 72.1669 1.05333 74.4069 2.28C76.6735 3.50667 78.4469 5.22667 79.7269 7.44C81.0335 9.65333 81.6869 12.1867 81.6869 15.04C81.6869 17.8933 81.0335 20.4267 79.7269 22.64C78.4469 24.8267 76.6735 26.5333 74.4069 27.76C72.1669 28.9867 69.6602 29.6 66.8869 29.6ZM66.8869 25C68.6735 25 70.3002 24.6 71.7669 23.8C73.2335 22.9733 74.3935 21.8133 75.2469 20.32C76.1269 18.8 76.5669 17.04 76.5669 15.04C76.5669 13.0667 76.1402 11.3333 75.2869 9.84C74.4335 8.32 73.2735 7.14667 71.8069 6.32C70.3402 5.49333 68.7002 5.08 66.8869 5.08C65.0735 5.08 63.4202 5.49333 61.9269 6.32C60.4602 7.14667 59.3002 8.32 58.4469 9.84C57.5935 11.3333 57.1669 13.0667 57.1669 15.04C57.1669 17.04 57.5935 18.8 58.4469 20.32C59.3269 21.8133 60.5002 22.9733 61.9669 23.8C63.4602 24.6 65.1002 25 66.8869 25ZM83.4812 1.04H88.7612L94.3212 20.8L99.8012 1.04H103.721L109.201 20.8L114.761 1.04H120.041L112.081 29H107.361L101.761 9.56L96.1612 29H91.4412L83.4812 1.04ZM140.861 1.04H159.781V5.28H145.941V13.12H156.221V16.92H145.941V29H140.861V1.04ZM173.335 18.36L163.175 1.04H168.575L175.775 13.48L183.175 1.04H188.535L178.175 18.36V29H173.335V18.36Z" fill="white"/>
<path d="M133.15 15.6541H125.001C124.921 15.6541 124.844 15.6853 124.787 15.7408C124.73 15.7963 124.698 15.8716 124.698 15.9501V27.698C124.698 28.0433 124.839 28.3745 125.089 28.6186C125.339 28.8628 125.678 29 126.032 29H132.119C132.473 29 132.812 28.8628 133.062 28.6186C133.312 28.3745 133.453 28.0433 133.453 27.698V15.9501C133.453 15.8716 133.421 15.7963 133.364 15.7408C133.307 15.6853 133.23 15.6541 133.15 15.6541Z" fill="white"/>
<path d="M132.549 11.1799C132.549 11.1014 132.518 11.0261 132.461 10.9706C132.404 10.9151 132.327 10.884 132.246 10.884H125.905C125.824 10.884 125.747 10.9151 125.69 10.9706C125.633 11.0261 125.602 11.1014 125.602 11.1799V15.0623H132.549V11.1799Z" fill="white"/>
<path d="M131.416 3.52155C131.414 3.47923 131.406 3.43741 131.392 3.39726C131.034 2.50923 130.444 1.72852 129.68 1.13334C128.916 0.538162 128.005 0.149418 127.039 0.006054C126.995 -0.00303602 126.95 -0.00187557 126.906 0.0094405C126.863 0.0207566 126.823 0.041906 126.79 0.0711556C126.757 0.0992142 126.731 0.133826 126.713 0.172635C126.696 0.211444 126.687 0.253539 126.687 0.296053V10.2921H131.416V3.52155Z" fill="white"/>
</svg>
