<svg width="252" height="27" viewBox="0 0 252 27" fill="none" xmlns="http://www.w3.org/2000/svg">
<rect x="65" width="57" height="27" rx="2" fill="white"/>
<path d="M81.7308 7.816H84.3228L87.3948 15.768L90.4828 7.816H93.0588L88.5948 19H86.2108L81.7308 7.816ZM94.4101 7.816H96.8421V19H94.4101V7.816ZM101.88 19.24C101.197 19.24 100.52 19.176 99.8475 19.048C99.1755 18.92 98.6262 18.7493 98.1995 18.536V16.392C98.7648 16.6693 99.3515 16.8773 99.9595 17.016C100.568 17.1547 101.149 17.224 101.704 17.224C102.322 17.224 102.792 17.1173 103.112 16.904C103.432 16.6907 103.592 16.392 103.592 16.008C103.592 15.7307 103.512 15.496 103.352 15.304C103.192 15.112 102.957 14.9413 102.648 14.792C102.349 14.632 101.885 14.424 101.256 14.168C100.21 13.7413 99.4528 13.2667 98.9835 12.744C98.5142 12.2107 98.2795 11.5547 98.2795 10.776C98.2795 10.1467 98.4502 9.592 98.7915 9.112C99.1328 8.62133 99.6128 8.24267 100.232 7.976C100.85 7.70933 101.565 7.576 102.376 7.576C103.037 7.576 103.624 7.62933 104.136 7.736C104.648 7.84267 105.149 8.008 105.64 8.232V10.312C104.701 9.84267 103.762 9.608 102.824 9.608C102.226 9.608 101.757 9.71467 101.416 9.928C101.074 10.1307 100.904 10.424 100.904 10.808C100.904 11.0853 100.984 11.3147 101.144 11.496C101.304 11.6773 101.528 11.8373 101.816 11.976C102.104 12.1147 102.573 12.3173 103.224 12.584C103.981 12.904 104.573 13.2133 105 13.512C105.426 13.8 105.741 14.1467 105.944 14.552C106.146 14.9467 106.248 15.4373 106.248 16.024C106.248 17.0373 105.88 17.8267 105.144 18.392C104.418 18.9573 103.33 19.24 101.88 19.24Z" fill="#303030"/>
<rect width="57" height="27" rx="2" fill="white"/>
<path d="M17.8867 7.816H20.2867L23.7267 15.304L27.1827 7.816H29.5667V19H27.2467V12.648L24.2867 19H23.1667L20.2227 12.648V19H17.8867V7.816ZM36.4116 19.24C35.2169 19.24 34.1609 19.0053 33.2436 18.536C32.3262 18.056 31.6169 17.3787 31.1156 16.504C30.6142 15.6293 30.3636 14.6 30.3636 13.416C30.3636 12.232 30.6142 11.2027 31.1156 10.328C31.6169 9.44267 32.3262 8.76533 33.2436 8.296C34.1609 7.816 35.2169 7.576 36.4116 7.576C37.9582 7.576 39.2489 7.928 40.2836 8.632V10.936C39.8142 10.5413 39.2756 10.2587 38.6676 10.088C38.0702 9.90667 37.3876 9.816 36.6196 9.816C35.4569 9.816 34.5342 10.1413 33.8516 10.792C33.1796 11.432 32.8436 12.3067 32.8436 13.416C32.8436 14.536 33.1849 15.4213 33.8676 16.072C34.5502 16.712 35.4676 17.032 36.6196 17.032C37.4089 17.032 38.1076 16.9413 38.7156 16.76C39.3236 16.568 39.8889 16.264 40.4116 15.848V18.152C39.4302 18.8773 38.0969 19.24 36.4116 19.24Z" fill="#303030"/>
<rect x="130" width="57" height="27" rx="2" fill="white"/>
<path d="M144.168 7.816H148.872C150.141 7.816 151.155 8.152 151.912 8.824C152.669 9.48533 153.048 10.408 153.048 11.592C153.048 12.808 152.669 13.7413 151.912 14.392C151.165 15.0427 150.152 15.368 148.872 15.368H146.6V19H144.168V7.816ZM148.52 13.336C149.896 13.336 150.584 12.7547 150.584 11.592C150.584 10.9413 150.397 10.488 150.024 10.232C149.661 9.976 149.16 9.848 148.52 9.848H146.6V13.336H148.52ZM156.734 7.816H159.118L163.582 19H161.102L160.142 16.568H155.71L154.75 19H152.254L156.734 7.816ZM159.502 14.632L157.918 10.376L156.334 14.632H159.502ZM166.553 14.744L162.457 7.816H165.049L167.753 12.472L170.553 7.816H173.129L168.937 14.744V19H166.553V14.744Z" fill="#303030"/>
<rect x="195" width="57" height="27" rx="2" fill="white"/>
<path d="M214.949 7.816H219.653C220.923 7.816 221.936 8.152 222.693 8.824C223.451 9.48533 223.829 10.408 223.829 11.592C223.829 12.808 223.451 13.7413 222.693 14.392C221.947 15.0427 220.933 15.368 219.653 15.368H217.381V19H214.949V7.816ZM219.301 13.336C220.677 13.336 221.365 12.7547 221.365 11.592C221.365 10.9413 221.179 10.488 220.805 10.232C220.443 9.976 219.941 9.848 219.301 9.848H217.381V13.336H219.301ZM224.715 7.816H229.419C230.688 7.816 231.701 8.152 232.459 8.824C233.216 9.48533 233.595 10.408 233.595 11.592C233.595 12.808 233.216 13.7413 232.459 14.392C231.712 15.0427 230.699 15.368 229.419 15.368H227.147V19H224.715V7.816ZM229.067 13.336C230.443 13.336 231.131 12.7547 231.131 11.592C231.131 10.9413 230.944 10.488 230.571 10.232C230.208 9.976 229.707 9.848 229.067 9.848H227.147V13.336H229.067Z" fill="#303030"/>
</svg>
