<svg width="29" height="35" viewBox="0 0 29 35" fill="none" xmlns="http://www.w3.org/2000/svg">
  <path d="M14.4999 19.6233C12.8096 19.6253 11.1708 19.0659 9.86259 18.0406C8.55441 17.0153 7.65776 15.5874 7.32532 14C7.29882 13.8328 7.31059 13.6621 7.35983 13.4996C7.40906 13.3372 7.49457 13.187 7.61044 13.0594C7.72631 12.9318 7.86976 12.8298 8.03086 12.7605C8.19196 12.6913 8.36685 12.6564 8.54342 12.6583C8.83361 12.6543 9.11577 12.7496 9.33909 12.9271C9.56241 13.1047 9.71222 13.3527 9.76152 13.6267C9.99093 14.6754 10.5902 15.6166 11.4586 16.2921C12.327 16.9677 13.4116 17.3364 14.5304 17.3364C15.6491 17.3364 16.7338 16.9677 17.6022 16.2921C18.4706 15.6166 19.0699 14.6754 19.2993 13.6267C19.3486 13.3527 19.4984 13.1047 19.7217 12.9271C19.945 12.7496 20.2272 12.6543 20.5174 12.6583C20.6939 12.6564 20.8688 12.6913 21.0299 12.7605C21.191 12.8298 21.3345 12.9318 21.4504 13.0594C21.5662 13.187 21.6517 13.3372 21.701 13.4996C21.7502 13.6621 21.762 13.8328 21.7355 14C21.4011 15.5972 20.4954 17.0328 19.1747 18.0592C17.8539 19.0857 16.2007 19.6388 14.4999 19.6233Z" fill="#303030"/>
  <path d="M25.3411 35H3.65888C3.16322 35.0006 2.67261 34.9046 2.21691 34.7179C1.7612 34.5312 1.34992 34.2576 1.00809 33.9138C0.666251 33.57 0.401007 33.1633 0.22849 32.7182C0.0559722 32.2732 -0.0202124 31.7991 0.00457108 31.325L0.991235 11.2117C1.03207 10.31 1.43503 9.4582 2.11597 8.83428C2.79691 8.21035 3.70318 7.8625 4.64554 7.86334H24.3545C25.2968 7.8625 26.2031 8.21035 26.884 8.83428C27.565 9.4582 27.9679 10.31 28.0088 11.2117L28.9954 31.325C29.0202 31.7991 28.944 32.2732 28.7715 32.7182C28.599 33.1633 28.3337 33.57 27.9919 33.9138C27.6501 34.2576 27.2388 34.5312 26.7831 34.7179C26.3274 34.9046 25.8368 35.0006 25.3411 35ZM4.64554 10.2083C4.32248 10.2083 4.01265 10.3313 3.78422 10.5501C3.55578 10.7688 3.42744 11.0656 3.42744 11.375L2.44078 31.4417C2.43252 31.5997 2.45791 31.7577 2.51542 31.9061C2.57292 32.0544 2.66134 32.19 2.77528 32.3046C2.88923 32.4192 3.02632 32.5104 3.17822 32.5726C3.33013 32.6349 3.49366 32.6669 3.65888 32.6667H25.3411C25.5063 32.6669 25.6699 32.6349 25.8218 32.5726C25.9737 32.5104 26.1108 32.4192 26.2247 32.3046C26.3387 32.19 26.4271 32.0544 26.4846 31.9061C26.5421 31.7577 26.5675 31.5997 26.5592 31.4417L25.5726 11.3283C25.5726 11.0189 25.4442 10.7222 25.2158 10.5034C24.9873 10.2846 24.6775 10.1617 24.3545 10.1617L4.64554 10.2083Z" fill="#303030"/>
  <path d="M21.8085 9.04167H19.3723V7C19.3723 5.76232 18.859 4.57534 17.9452 3.70017C17.0315 2.825 15.7921 2.33333 14.4999 2.33333C13.2077 2.33333 11.9683 2.825 11.0546 3.70017C10.1408 4.57534 9.62749 5.76232 9.62749 7V9.04167H7.19128V7C7.19128 5.14349 7.9613 3.36301 9.33193 2.05025C10.7026 0.737498 12.5615 0 14.4999 0C16.4383 0 18.2972 0.737498 19.6679 2.05025C21.0385 3.36301 21.8085 5.14349 21.8085 7V9.04167Z" fill="#303030"/>
</svg>