<svg width="15" height="19" viewBox="0 0 15 19" fill="none" xmlns="http://www.w3.org/2000/svg">
<path d="M7.49995 10.15C6.62562 10.151 5.77796 9.86171 5.10131 9.33137C4.42467 8.80103 3.96088 8.06245 3.78893 7.24139C3.77523 7.15491 3.78132 7.0666 3.80678 6.98259C3.83225 6.89858 3.87648 6.82088 3.93641 6.75487C3.99634 6.68886 4.07054 6.63611 4.15387 6.60029C4.2372 6.56448 4.32766 6.54644 4.41899 6.54743C4.56909 6.54534 4.71503 6.59464 4.83054 6.68647C4.94605 6.77829 5.02354 6.9066 5.04904 7.04829C5.1677 7.59074 5.47765 8.07756 5.92682 8.42698C6.376 8.77639 6.93704 8.96712 7.5157 8.96712C8.09436 8.96712 8.6554 8.77639 9.10458 8.42698C9.55375 8.07756 9.8637 7.59074 9.98236 7.04829C10.0079 6.9066 10.0853 6.77829 10.2009 6.68647C10.3164 6.59464 10.4623 6.54534 10.6124 6.54743C10.7037 6.54644 10.7942 6.56448 10.8775 6.60029C10.9609 6.63611 11.0351 6.68886 11.095 6.75487C11.1549 6.82088 11.1992 6.89858 11.2246 6.98259C11.2501 7.0666 11.2562 7.15491 11.2425 7.24139C11.0695 8.06756 10.6011 8.81007 9.91792 9.341C9.23477 9.87193 8.37967 10.158 7.49995 10.15Z" fill="white"/>
<path d="M13.1075 18.1036H1.89252C1.63615 18.1039 1.38239 18.0542 1.14668 17.9577C0.910966 17.8611 0.698235 17.7196 0.521424 17.5418C0.344612 17.3639 0.207417 17.1535 0.118184 16.9233C0.0289511 16.6931 -0.0104547 16.448 0.00236435 16.2027L0.512708 5.79928C0.533829 5.33287 0.742257 4.89231 1.09447 4.56959C1.44668 4.24687 1.91544 4.06695 2.40287 4.06738H12.5971C13.0846 4.06695 13.5533 4.24687 13.9055 4.56959C14.2577 4.89231 14.4662 5.33287 14.4873 5.79928L14.9976 16.2027C15.0105 16.448 14.9711 16.6931 14.8818 16.9233C14.7926 17.1535 14.6554 17.3639 14.4786 17.5418C14.3018 17.7196 14.089 17.8611 13.8533 17.9577C13.6176 18.0542 13.3639 18.1039 13.1075 18.1036ZM2.40287 5.28031C2.23577 5.28031 2.07551 5.34389 1.95735 5.45706C1.8392 5.57023 1.77281 5.72372 1.77281 5.88376L1.26247 16.2631C1.2582 16.3448 1.27133 16.4265 1.30108 16.5033C1.33082 16.58 1.37655 16.6501 1.43549 16.7094C1.49443 16.7687 1.56534 16.8159 1.64391 16.8481C1.72248 16.8802 1.80707 16.8968 1.89252 16.8967H13.1075C13.1929 16.8968 13.2775 16.8802 13.3561 16.8481C13.4347 16.8159 13.5056 16.7687 13.5645 16.7094C13.6234 16.6501 13.6692 16.58 13.6989 16.5033C13.7287 16.4265 13.7418 16.3448 13.7375 16.2631L13.2272 5.85962C13.2272 5.69958 13.1608 5.54609 13.0426 5.43292C12.9245 5.31975 12.7642 5.25618 12.5971 5.25618L2.40287 5.28031Z" fill="white"/>
<path d="M11.2803 4.67672H10.0202V3.62069C10.0202 2.98051 9.75468 2.36655 9.28205 1.91388C8.80941 1.46121 8.16839 1.2069 7.49999 1.2069C6.83158 1.2069 6.19056 1.46121 5.71793 1.91388C5.24529 2.36655 4.97977 2.98051 4.97977 3.62069V4.67672H3.71967V3.62069C3.71967 2.66042 4.11795 1.73949 4.8269 1.06048C5.53584 0.381464 6.49738 0 7.49999 0C8.50259 0 9.46413 0.381464 10.1731 1.06048C10.882 1.73949 11.2803 2.66042 11.2803 3.62069V4.67672Z" fill="white"/>
</svg>
