<svg width="53" height="44" viewBox="0 0 53 44" fill="none" xmlns="http://www.w3.org/2000/svg">
<g opacity="0.5">
<path fill-rule="evenodd" clip-rule="evenodd" d="M26.865 0.0116234C22.6527 -0.130868 18.3969 1.03649 14.7226 3.52775C10.5959 6.32874 7.71198 10.465 6.38362 15.089C6.01679 15.0435 5.57751 15.0635 5.05591 15.2134C3.10847 15.7747 1.64378 17.3956 0.98519 18.8232C0.131005 20.6836 -0.229242 23.1441 0.150762 25.6842C0.528132 28.2162 1.58121 30.3034 2.89838 31.5992C4.2195 32.8957 5.7112 33.3172 7.19302 33.0007C9.39928 32.5224 10.4932 32.1645 10.1843 30.0767L8.68867 19.9557C8.9903 14.4782 11.782 9.32173 16.4514 6.1508C22.7014 1.91017 30.8955 2.18177 36.857 6.83047C41.0042 10.0603 43.4119 14.8996 43.6899 19.9798L42.644 27.0596C40.3113 33.5439 34.5283 38.0354 27.8364 38.673H23.3804C22.2305 38.673 21.3045 39.6135 21.3045 40.7802V41.8921C21.3045 43.0594 22.2305 44 23.3804 44H28.9988C30.148 44 31.07 43.0594 31.07 41.8921V41.3107C36.1161 40.0597 40.5207 36.9095 43.3889 32.5164L45.1888 33.0014C46.6535 33.3874 48.163 32.8957 49.4834 31.5999C50.8006 30.3034 51.853 28.2169 52.2311 25.6848C52.6124 23.1447 52.2416 20.6883 51.3973 18.8238C50.5497 16.9594 49.2872 15.7753 47.8297 15.3505C47.2192 15.1719 46.5567 15.1063 45.9883 15.089C44.7871 10.9079 42.3141 7.10542 38.7498 4.32918C35.2455 1.59776 31.0773 0.152108 26.865 0.0116234Z" fill="#F2F2F2"/>
<path fill-rule="evenodd" clip-rule="evenodd" d="M33.4404 18.2197C34.9255 18.2197 36.1294 19.4426 36.1327 20.9551C36.1294 22.4637 34.9255 23.6899 33.4404 23.6899C31.9514 23.6899 30.7442 22.4637 30.7442 20.9551C30.7442 19.4433 31.952 18.2197 33.4404 18.2197ZM26.1894 18.2197C27.6778 18.2197 28.8817 19.4426 28.8817 20.9551C28.8817 22.4637 27.6778 23.6899 26.1894 23.6899C24.6997 23.6899 23.4958 22.4637 23.4958 20.9551C23.4958 19.4433 24.6997 18.2197 26.1894 18.2197ZM18.941 18.2197C20.4261 18.2197 21.6333 19.4426 21.6333 20.9551C21.6333 22.4637 20.4261 23.6899 18.941 23.6899C17.4526 23.6899 16.248 22.4637 16.248 20.9551C16.248 19.4433 17.4526 18.2197 18.941 18.2197ZM26.1894 6.47119C18.2929 6.47119 11.9297 12.7221 11.9297 20.9551C11.9297 24.9094 13.4016 28.4042 15.7995 30.9683L14.9486 34.843C14.6681 36.1181 15.5387 36.9757 16.6669 36.3375L20.3919 34.2269C22.1621 35.0076 24.1201 35.4391 26.1894 35.4391C34.0885 35.4391 40.4478 29.1922 40.4478 20.9551C40.4478 12.7221 34.0885 6.47119 26.1894 6.47119Z" fill="#F2F2F2"/>
</g>
</svg>
