<svg width="43" height="46" viewBox="0 0 43 46" fill="none" xmlns="http://www.w3.org/2000/svg">
<path opacity="0.5" d="M38.1839 32.0167C35.3968 29.6399 32.5682 28.2002 29.8152 30.5734L28.1713 32.0077C26.9686 33.0489 24.7324 37.9137 16.0864 27.9974C7.44214 18.0935 12.5862 16.5515 13.7907 15.5193L15.4436 14.0832C18.1821 11.7046 17.1487 8.71031 15.1735 5.62804L13.9816 3.76109C11.9974 0.686007 9.83681 -1.33353 7.09104 1.04145L5.60743 2.33395C4.39389 3.21537 1.00174 6.08042 0.178911 11.5233C-0.811365 18.054 2.31251 25.5326 9.46951 33.7382C16.6175 41.9474 23.6161 46.0709 30.2455 45.9991C35.7551 45.9398 39.0824 42.9922 40.1231 41.9205L41.6121 40.6262C44.3507 38.253 42.6492 35.8368 39.8602 33.4546L38.1839 32.0167Z" fill="#F2F2F2"/>
</svg>
