<svg width="52" height="37" viewBox="0 0 52 37" fill="none" xmlns="http://www.w3.org/2000/svg">
<g opacity="0.5">
<path d="M51.5395 2.61224L35.7695 18.2806L51.5395 33.949C51.8246 33.3532 51.9975 32.6945 51.9975 31.9911V4.5702C51.9975 3.8667 51.8246 3.20809 51.5395 2.61224Z" fill="#F2F2F2"/>
<path d="M47.4252 0H4.56733C3.86383 0 3.20522 0.172955 2.60938 0.458031L22.7651 20.5121C24.5472 22.2943 27.4453 22.2943 29.2274 20.5121L49.3831 0.458031C48.7873 0.172955 48.1287 0 47.4252 0Z" fill="#F2F2F2"/>
<path d="M0.45803 2.61218C0.172955 3.20803 0 3.86664 0 4.57014V31.991C0 32.6945 0.172955 33.3532 0.45803 33.949L16.228 18.2806L0.45803 2.61218Z" fill="#F2F2F2"/>
<path d="M33.6132 20.4348L31.3816 22.6663C28.4121 25.6358 23.5803 25.6358 20.6108 22.6663L18.3793 20.4348L2.60938 36.1032C3.20522 36.3882 3.86383 36.5612 4.56733 36.5612H47.4252C48.1287 36.5612 48.7873 36.3882 49.3831 36.1032L33.6132 20.4348Z" fill="#F2F2F2"/>
</g>
</svg>
