<svg width="54" height="50" viewBox="0 0 54 50" fill="none" xmlns="http://www.w3.org/2000/svg">
<path d="M22.0471 49.511C21.9216 49.511 21.7966 49.4838 21.6802 49.4298C21.6222 49.4026 15.7097 46.5519 10.0663 40.3349C6.90488 36.8523 4.44572 32.9955 2.75697 28.8722C0.656001 23.7418 -0.251457 18.1836 0.0596092 12.3517C0.0817246 11.9394 0.390253 11.5994 0.798482 11.5377C6.22293 10.718 11.2671 8.65294 15.7902 5.40016C18.9999 3.09181 20.8757 0.927036 21.3742 0.31868C21.5395 0.117103 21.7864 0 22.0474 0C22.3081 0 22.5554 0.117103 22.7207 0.31868L22.7555 0.361461C23.7423 1.57563 27.4719 5.76923 34.0376 8.75264C34.4752 8.95131 34.6685 9.46722 34.4698 9.90482C34.2711 10.3424 33.7552 10.536 33.3176 10.337C30.1914 8.91651 27.3196 7.08347 24.7814 4.8886C24.0393 4.24653 23.0176 3.3039 22.0395 2.20429C21.0921 3.24299 19.3356 4.99374 16.8061 6.81264C14.7138 8.31722 12.4675 9.60136 10.1297 10.6288C7.45378 11.8049 4.64331 12.65 1.76576 13.1438C1.40648 23.0051 4.63025 31.757 11.3548 39.165C13.5163 41.5462 16.0708 43.7806 18.7421 45.6263C20.2938 46.6984 21.4819 47.3647 22.0485 47.6646C23.1702 47.0754 26.6986 45.0821 30.4977 41.5078C36.3514 35.9999 40.0831 29.4824 41.5884 22.1357C41.6849 21.6648 42.1453 21.3617 42.6155 21.4581C43.0865 21.5546 43.3899 22.0143 43.2931 22.4852C42.4263 26.7154 40.8209 30.7459 38.5216 34.4646C36.6744 37.4523 34.3759 40.2483 31.6901 42.7752C26.8287 47.3492 22.4578 49.4091 22.4143 49.4295C22.2976 49.4838 22.1721 49.511 22.0471 49.511Z" fill="#E61F7F"/>
<path d="M22.0471 44.4228C21.9216 44.4228 21.7965 44.3956 21.6802 44.3416C21.6341 44.3202 16.9471 42.0604 12.4816 37.1407C9.97929 34.3839 8.03241 31.3305 6.69533 28.0657C5.03123 24.0026 4.31266 19.6013 4.55883 14.9846C4.58095 14.5724 4.88948 14.2323 5.2977 14.1707C9.53734 13.5301 13.4797 11.916 17.0153 9.37346C19.523 7.56978 20.9859 5.88212 21.3742 5.40755C21.5395 5.20597 21.7864 5.08887 22.0474 5.08887C22.3085 5.08887 22.5554 5.20597 22.7207 5.40755L22.7562 5.45142C23.7007 6.61773 27.2747 10.5981 33.6196 12.8467C34.0724 13.0073 34.3095 13.5043 34.1493 13.9575C33.9887 14.4103 33.4916 14.6474 33.0384 14.4872C29.9756 13.4017 27.1652 11.8225 24.6853 9.79257C23.966 9.20379 22.9795 8.33186 22.0376 7.28736C21.2589 8.12412 19.9153 9.43183 18.0318 10.7867C16.3746 11.9784 14.5956 12.9953 12.7441 13.8092C10.6703 14.7207 8.49502 15.3809 6.26752 15.7757C6.02461 23.4251 8.54686 30.2171 13.7708 35.9722C17.2959 39.8554 20.9101 41.9658 22.0489 42.576C23.0517 42.0423 25.9597 40.3659 28.9939 37.4148C33.7824 32.7578 36.6574 27.2344 37.5391 20.9986C37.6065 20.5229 38.0467 20.1915 38.5223 20.259C38.998 20.326 39.3294 20.7665 39.2619 21.2422C36.9786 37.393 22.5601 44.2749 22.4147 44.3427C22.2976 44.3956 22.1721 44.4228 22.0471 44.4228Z" fill="#E61F7F"/>
<path d="M43.164 23.2067C40.284 23.2067 37.5761 22.0854 35.5397 20.0497C33.5029 18.0136 32.3815 15.3065 32.3815 12.4271C32.3815 9.54775 33.5032 6.8406 35.5397 4.80453C37.5761 2.76846 40.284 1.64746 43.164 1.64746C46.0441 1.64746 48.752 2.76882 50.7884 4.80453C52.8252 6.8406 53.9466 9.54775 53.9466 12.4271C53.9466 15.3065 52.8249 18.0136 50.7884 20.0497C48.7516 22.0854 46.0441 23.2067 43.164 23.2067ZM43.164 3.38733C38.1779 3.38733 34.1217 7.44243 34.1217 12.4267C34.1217 17.4111 38.1783 21.4662 43.164 21.4662C48.1498 21.4662 52.2064 17.4114 52.2064 12.4271C52.2064 7.44279 48.1498 3.38733 43.164 3.38733Z" fill="#E61F7F"/>
<path d="M40.4294 16.6378C40.1941 16.6378 39.9599 16.5428 39.7887 16.3564L37.4887 13.8549C37.1635 13.501 37.1867 12.9507 37.5402 12.6255C37.8937 12.3002 38.4444 12.3235 38.7696 12.6769L40.5 14.5589L47.6321 8.42715C47.9965 8.1139 48.5457 8.15523 48.859 8.5196C49.1722 8.88396 49.1309 9.43322 48.7665 9.74682L40.9964 16.4275C40.8321 16.5682 40.6302 16.6378 40.4294 16.6378Z" fill="#E61F7F"/>
<path d="M22.5166 29.4823C19.8823 29.4823 17.7393 27.3393 17.7393 24.705C17.7393 22.0708 19.8823 19.9277 22.5166 19.9277C25.1508 19.9277 27.2939 22.0708 27.2939 24.705C27.2939 27.3393 25.1505 29.4823 22.5166 29.4823ZM22.5166 21.6683C20.842 21.6683 19.4795 23.0308 19.4795 24.7054C19.4795 26.38 20.842 27.7425 22.5166 27.7425C24.1912 27.7425 25.5536 26.38 25.5536 24.7054C25.5536 23.0308 24.1908 21.6683 22.5166 21.6683Z" fill="#E61F7F"/>
<path d="M23.6115 35.2983H20.9645C20.5215 35.2983 20.1488 34.9651 20.0998 34.5247L19.8848 32.5984C19.3812 32.4306 18.8958 32.2152 18.4328 31.9538L16.9609 33.1299C16.6146 33.4066 16.1158 33.379 15.8025 33.0654L13.9307 31.1936C13.6175 30.8803 13.5895 30.3815 13.8662 30.0352L15.1046 28.4857C14.8679 28.0227 14.6761 27.5402 14.5307 27.0413L12.6328 26.8296C12.1923 26.7803 11.8591 26.4079 11.8591 25.9649V23.3179C11.8591 22.8745 12.1923 22.5022 12.6328 22.4532L14.5702 22.2372C14.7279 21.7278 14.9346 21.2362 15.1877 20.7663L14.0275 19.3147C13.7509 18.9684 13.7784 18.4696 14.092 18.1563L15.9639 16.2845C16.2771 15.9709 16.776 15.9433 17.1222 16.22L18.5731 17.3794C19.0705 17.1107 19.5923 16.895 20.1332 16.7337L20.3282 14.9866C20.3775 14.5461 20.7499 14.2129 21.1929 14.2129H23.8399C24.2829 14.2129 24.6556 14.5461 24.7045 14.9866L24.8996 16.7337C25.4699 16.9037 26.0184 17.1343 26.5398 17.4233L27.8435 16.3813C28.1897 16.1047 28.6886 16.1322 29.0018 16.4458L30.8737 18.3177C31.1869 18.6309 31.2148 19.1301 30.9382 19.476L29.8698 20.8131C30.1551 21.35 30.3788 21.9141 30.5394 22.4997L32.1716 22.6817C32.6121 22.731 32.9453 23.1033 32.9453 23.5463V26.1933C32.9453 26.6367 32.6121 27.009 32.1716 27.058L30.4379 27.2516C30.2566 27.8164 30.0159 28.3581 29.7179 28.8718L30.7769 30.1969C31.0535 30.5431 31.0259 31.042 30.7123 31.3553L28.8405 33.2271C28.5273 33.5403 28.028 33.5683 27.6822 33.2916L26.245 32.1431C25.7425 32.3954 25.2179 32.5952 24.6755 32.7406L24.4765 34.525C24.4272 34.9651 24.0549 35.2983 23.6115 35.2983ZM21.7429 33.5581H22.8331L23.0143 31.9324C23.0568 31.5514 23.3439 31.2429 23.721 31.1733C24.4881 31.0315 25.2176 30.756 25.8883 30.3546C26.1997 30.1683 26.5945 30.1947 26.8784 30.4217L28.1604 31.4463L28.9311 30.6755L27.9711 29.474C27.7315 29.1742 27.7166 28.7525 27.9349 28.4364C28.3953 27.7693 28.7241 27.0333 28.9126 26.2484C28.9982 25.892 29.298 25.6277 29.662 25.5871L31.2047 25.4149V24.3247L29.7349 24.1608C29.3557 24.1184 29.0486 23.8342 28.9768 23.4597C28.8227 22.6548 28.5218 21.8938 28.0828 21.1988C27.8848 20.8852 27.9073 20.4806 28.1386 20.1909L29.0925 18.9974L28.3217 18.2267L27.1525 19.1613C26.8581 19.3966 26.4451 19.4155 26.1304 19.2081C25.4525 18.7614 24.7078 18.4478 23.9171 18.2767C23.552 18.1977 23.2779 17.8942 23.2366 17.523L23.0615 15.9535H21.9713L21.7962 17.523C21.7549 17.8942 21.4808 18.1977 21.1157 18.2767C20.3511 18.4424 19.6285 18.7415 18.9679 19.1653C18.6536 19.3669 18.2461 19.3458 17.9546 19.1127L16.6436 18.065L15.8729 18.8357L16.921 20.1471C17.1538 20.4386 17.1751 20.8461 16.9739 21.16C16.5653 21.7974 16.2724 22.4939 16.1038 23.2298C16.0212 23.5906 15.7199 23.8592 15.3523 23.9005L13.5993 24.0963V25.1865L15.3236 25.379C15.697 25.4207 16.0016 25.6973 16.0788 26.065C16.2314 26.7922 16.5055 27.484 16.8927 28.1202C17.0827 28.4324 17.0573 28.8301 16.8293 29.1158L15.7119 30.5141L16.4827 31.2849L17.8245 30.2125C18.121 29.9754 18.5376 29.958 18.853 30.1701C19.4802 30.5917 20.1687 30.8988 20.8985 31.0833C21.2502 31.1722 21.5098 31.4698 21.55 31.8306L21.7429 33.5581Z" fill="#E61F7F"/>
</svg>
