<svg width="50" height="51" viewBox="0 0 50 51" fill="none" xmlns="http://www.w3.org/2000/svg">
<path d="M27.83 50.1621H22.17C21.8432 50.1608 21.5266 50.048 21.2726 49.8424C21.0186 49.6368 20.8423 49.3507 20.7729 49.0314L20.13 46.0171C17.8538 45.4887 15.6804 44.5885 13.6971 43.3528L11.1086 45.0293C10.8338 45.2055 10.5072 45.2829 10.1826 45.2486C9.85798 45.2143 9.55473 45.0704 9.32286 44.8407L5.32286 40.8407C5.09311 40.6088 4.94919 40.3056 4.91478 39.981C4.88037 39.6565 4.95754 39.3298 5.13357 39.055L6.81 36.4657C5.57523 34.4836 4.67533 32.3117 4.14643 30.0371L1.13143 29.3943C0.811119 29.3248 0.524218 29.1478 0.318395 28.8927C0.112572 28.6377 0.000218203 28.3199 0 27.9921V22.3321C0.00132094 22.0053 0.114093 21.6887 0.319681 21.4347C0.52527 21.1807 0.811372 21.0044 1.13071 20.935L4.145 20.2921C4.67353 18.0163 5.57344 15.8432 6.80857 13.86L5.13286 11.2707C4.95674 10.9959 4.87945 10.6693 4.91373 10.3447C4.948 10.0201 5.0918 9.71691 5.32143 9.48497L9.32143 5.48497C9.55324 5.2551 9.8565 5.11115 10.1811 5.07686C10.5058 5.04258 10.8324 5.12002 11.1071 5.29639L13.695 6.97282C15.6787 5.7357 17.8529 4.83431 20.13 4.30497L20.7729 1.29068C20.8427 0.971735 21.0192 0.686122 21.2732 0.480955C21.5272 0.275788 21.8435 0.163323 22.17 0.162109H27.83C28.1568 0.16343 28.4734 0.276202 28.7274 0.481791C28.9814 0.687379 29.1577 0.973482 29.2271 1.29282L29.87 4.30711C32.1462 4.83556 34.3196 5.73573 36.3029 6.9714L38.8914 5.29497C39.1661 5.11846 39.4928 5.04095 39.8174 5.07523C40.1421 5.10952 40.4454 5.25356 40.6771 5.48354L44.6771 9.48354C44.9069 9.7154 45.0508 10.0186 45.0852 10.3432C45.1196 10.6678 45.0425 10.9944 44.8664 11.2693L43.19 13.8585C44.4265 15.8417 45.3276 18.0151 45.8571 20.2914L48.8721 20.9343C49.1911 21.0043 49.4766 21.1809 49.6817 21.435C49.8867 21.6892 49.999 22.0056 50 22.3321V27.9921C49.9987 28.3188 49.886 28.6353 49.6806 28.8893C49.4751 29.1433 49.1892 29.3197 48.87 29.3893L45.855 30.0321C45.3261 32.3067 44.4262 34.4786 43.1914 36.4607L44.8671 39.0493C45.0433 39.324 45.1205 39.6506 45.0863 39.9752C45.052 40.2998 44.9082 40.603 44.6786 40.835L40.6786 44.835C40.4468 45.0648 40.1435 45.2088 39.8189 45.2431C39.4942 45.2774 39.1676 45.1999 38.8929 45.0235L36.305 43.3471C34.3217 44.5828 32.1483 45.4829 29.8721 46.0114L29.2293 49.0257C29.1609 49.3464 28.9848 49.6341 28.7302 49.8409C28.4756 50.0476 28.158 50.161 27.83 50.1621ZM13.6936 41.79C13.8318 41.7901 13.967 41.8303 14.0829 41.9057C16.153 43.2584 18.4575 44.2126 20.8779 44.7192C21.0135 44.7475 21.138 44.8147 21.2361 44.9124C21.3343 45.0102 21.4019 45.1344 21.4307 45.27L22.1693 48.7335H27.83L28.5714 45.27C28.6002 45.1344 28.6678 45.0102 28.766 44.9124C28.8642 44.8147 28.9886 44.7475 29.1243 44.7192C31.5447 44.2126 33.8492 43.2584 35.9193 41.9057C36.0351 41.8305 36.1702 41.7905 36.3082 41.7905C36.4463 41.7905 36.5814 41.8305 36.6971 41.9057L39.6707 43.8343L43.6707 39.8343L41.7421 36.8607C41.667 36.7449 41.627 36.6098 41.627 36.4718C41.627 36.3337 41.667 36.1986 41.7421 36.0828C43.0949 34.0127 44.0493 31.7082 44.5564 29.2878C44.5845 29.1519 44.6515 29.0271 44.7493 28.9287C44.8471 28.8303 44.9714 28.7625 45.1071 28.7335L48.5714 27.9921V22.3321L45.1071 21.5907C44.9719 21.5616 44.848 21.4939 44.7505 21.3958C44.653 21.2976 44.586 21.1733 44.5579 21.0378C44.0507 18.6174 43.0963 16.313 41.7436 14.2428C41.6684 14.127 41.6284 13.9919 41.6284 13.8539C41.6284 13.7158 41.6684 13.5808 41.7436 13.465L43.6721 10.4921L39.6721 6.49211L36.6993 8.42068C36.5835 8.49585 36.4484 8.53585 36.3104 8.53585C36.1723 8.53585 36.0372 8.49585 35.9214 8.42068C33.8502 7.06676 31.5442 6.1118 29.1221 5.60497C28.9869 5.57631 28.8629 5.50902 28.7651 5.41127C28.6674 5.31352 28.6001 5.1895 28.5714 5.05425L27.8307 1.59068H22.17L21.4286 5.05425C21.3998 5.18978 21.3322 5.314 21.234 5.41178C21.1358 5.50956 21.0114 5.57668 20.8757 5.60497C18.4553 6.11165 16.1508 7.06586 14.0807 8.41854C13.9649 8.49371 13.8298 8.53371 13.6918 8.53371C13.5537 8.53371 13.4186 8.49371 13.3029 8.41854L10.3293 6.48997L6.32929 10.49L8.25786 13.4635C8.33302 13.5793 8.37303 13.7144 8.37303 13.8525C8.37303 13.9905 8.33302 14.1256 8.25786 14.2414C6.90514 16.3116 5.9507 18.616 5.44357 21.0364C5.41554 21.1723 5.34852 21.2971 5.25072 21.3955C5.15292 21.4939 5.02857 21.5618 4.89286 21.5907L1.42857 22.3321V27.9921L4.89286 28.7335C5.02812 28.7626 5.15203 28.8303 5.24954 28.9285C5.34705 29.0266 5.41396 29.1509 5.44214 29.2864C5.94927 31.7068 6.90371 34.0112 8.25643 36.0814C8.3316 36.1972 8.3716 36.3323 8.3716 36.4703C8.3716 36.6084 8.3316 36.7435 8.25643 36.8593L6.32786 39.8321L10.3279 43.8321L13.3007 41.9035C13.4178 41.8282 13.5543 41.7887 13.6936 41.79Z" fill="#E61F7F"/>
<path d="M35.0214 15.1265C34.8389 15.1266 34.6634 15.0568 34.5307 14.9315C34.0289 14.4589 33.4913 14.0257 32.9228 13.6358C32.8456 13.5825 32.7797 13.5145 32.7288 13.4357C32.6779 13.3569 32.643 13.2688 32.6261 13.1765C32.6092 13.0842 32.6107 12.9895 32.6304 12.8978C32.6501 12.806 32.6877 12.7191 32.7411 12.6419C32.7944 12.5647 32.8624 12.4988 32.9412 12.4478C33.02 12.3969 33.1081 12.362 33.2004 12.3452C33.2927 12.3283 33.3874 12.3297 33.4791 12.3495C33.5708 12.3692 33.6578 12.4068 33.735 12.4601C34.3636 12.8915 34.958 13.3708 35.5128 13.8937C35.6166 13.992 35.6885 14.1192 35.7192 14.2588C35.7499 14.3984 35.7381 14.544 35.6851 14.6767C35.6322 14.8095 35.5407 14.9234 35.4223 15.0036C35.304 15.0837 35.1644 15.1266 35.0214 15.1265Z" fill="#E61F7F"/>
<path d="M25 40.5763C21.2873 40.5757 17.6996 39.2353 14.8961 36.8014C12.0925 34.3675 10.2615 31.0036 9.73957 27.3278C9.21761 23.652 10.0397 19.9114 12.0549 16.7932C14.07 13.675 17.1428 11.3889 20.7086 10.3548C20.7998 10.3247 20.8961 10.3133 20.9918 10.3213C21.0875 10.3293 21.1807 10.3565 21.2656 10.4013C21.3506 10.4461 21.4256 10.5076 21.4863 10.5821C21.5469 10.6566 21.5919 10.7425 21.6186 10.8348C21.6453 10.927 21.6531 11.0237 21.6415 11.1191C21.6299 11.2144 21.5993 11.3065 21.5513 11.3897C21.5034 11.4729 21.4391 11.5456 21.3624 11.6035C21.2858 11.6613 21.1982 11.703 21.105 11.7263C18.1996 12.5791 15.6476 14.3478 13.8292 16.769C12.0109 19.1901 11.0235 22.134 11.0143 25.162C11.0148 27.2516 11.4836 29.3146 12.3862 31.1993C13.2888 33.084 14.6023 34.7424 16.23 36.0528C17.8578 37.3631 19.7585 38.2921 21.7925 38.7713C23.8264 39.2506 25.9419 39.2679 27.9835 38.8222C30.0251 38.3764 31.9408 37.4788 33.5899 36.1953C35.2389 34.9119 36.5795 33.2752 37.5129 31.4056C38.4463 29.536 38.9489 27.481 38.9838 25.3917C39.0186 23.3023 38.5848 21.2317 37.7143 19.332C37.675 19.2467 37.6529 19.1545 37.6492 19.0607C37.6455 18.9669 37.6603 18.8733 37.6928 18.7852C37.7253 18.6971 37.7749 18.6163 37.8386 18.5474C37.9023 18.4784 37.979 18.4227 38.0643 18.3834C38.1495 18.3441 38.2417 18.322 38.3355 18.3183C38.4294 18.3146 38.523 18.3294 38.6111 18.3619C38.6991 18.3944 38.78 18.444 38.8489 18.5077C38.9178 18.5714 38.9736 18.6481 39.0129 18.7334C40.0898 21.0821 40.5591 23.6637 40.3778 26.2412C40.1964 28.8186 39.3702 31.3091 37.975 33.4839C36.5799 35.6586 34.6605 37.4478 32.3933 38.6871C30.1261 39.9264 27.5838 40.576 25 40.5763Z" fill="#E61F7F"/>
<path d="M28.7793 11.6695C28.7153 11.6697 28.6517 11.6612 28.59 11.6445C27.9342 11.4677 27.2654 11.3433 26.59 11.2723C26.4036 11.2494 26.2339 11.154 26.1173 11.0068C26.0008 10.8597 25.9469 10.6725 25.9672 10.4859C25.9876 10.2993 26.0806 10.1282 26.2262 10.0096C26.3717 9.89105 26.5581 9.83455 26.745 9.85234C27.4942 9.9316 28.236 10.0699 28.9635 10.2659C29.1306 10.3113 29.2755 10.4158 29.3713 10.5601C29.467 10.7043 29.5072 10.8784 29.4842 11.05C29.4612 11.2215 29.3767 11.3789 29.2464 11.4929C29.1161 11.6069 28.9488 11.6696 28.7757 11.6695H28.7793Z" fill="#E61F7F"/>
<path d="M37.2293 34.0335C37.1205 34.0336 37.0131 34.0089 36.9153 33.9613C36.8175 33.9136 36.7319 33.8443 36.665 33.7585C35.2792 31.9884 33.5087 30.557 31.4876 29.5725C29.4666 28.5881 27.248 28.0765 25 28.0765C22.752 28.0765 20.5334 28.5881 18.5124 29.5725C16.4914 30.557 14.7209 31.9884 13.335 33.7585C13.2185 33.9079 13.0474 34.005 12.8593 34.0283C12.6713 34.0516 12.4816 33.9993 12.3322 33.8828C12.1827 33.7663 12.0856 33.5951 12.0623 33.4071C12.039 33.219 12.0914 33.0294 12.2079 32.8799C13.7275 30.9386 15.669 29.3685 17.8853 28.2888C20.1016 27.2091 22.5347 26.6479 25 26.6479C27.4654 26.6479 29.8984 27.2091 32.1147 28.2888C34.3311 29.3685 36.2726 30.9386 37.7922 32.8799C37.8744 32.9854 37.9254 33.1118 37.9393 33.2449C37.9532 33.3779 37.9295 33.5122 37.8709 33.6324C37.8122 33.7526 37.721 33.854 37.6075 33.9249C37.4941 33.9958 37.3631 34.0334 37.2293 34.0335Z" fill="#E61F7F"/>
<path d="M25 28.0736C23.9079 28.0738 22.8403 27.7501 21.9323 27.1434C21.0242 26.5368 20.3164 25.6745 19.8983 24.6656C19.4803 23.6568 19.3709 22.5466 19.5839 21.4755C19.7968 20.4044 20.3226 19.4205 21.0948 18.6482C21.8669 17.8759 22.8508 17.35 23.9218 17.1369C24.9929 16.9238 26.1031 17.0331 27.1121 17.451C28.121 17.8689 28.9834 18.5766 29.5901 19.4846C30.1969 20.3926 30.5207 21.4601 30.5207 22.5522C30.5192 24.016 29.9371 25.4194 28.9021 26.4545C27.8671 27.4896 26.4638 28.0719 25 28.0736ZM25 18.4593C24.1905 18.4592 23.3991 18.6991 22.7259 19.1488C22.0528 19.5984 21.5281 20.2376 21.2182 20.9854C20.9083 21.7333 20.8271 22.5562 20.985 23.3502C21.1428 24.1442 21.5326 24.8736 22.1049 25.446C22.6773 26.0185 23.4066 26.4084 24.2005 26.5664C24.9945 26.7243 25.8175 26.6433 26.5654 26.3336C27.3133 26.0238 27.9526 25.4992 28.4023 24.8261C28.8521 24.1531 29.0921 23.3617 29.0921 22.5522C29.091 21.4672 28.6595 20.4269 27.8924 19.6596C27.1252 18.8923 26.085 18.4607 25 18.4593Z" fill="#E61F7F"/>
</svg>
