<svg width="49" height="50" viewBox="0 0 49 50" fill="none" xmlns="http://www.w3.org/2000/svg">
<path d="M13.8062 6.11595L16.5734 8.32594L15.642 11.73C15.5211 12.1718 15.6838 12.6313 16.0567 12.9005C16.2506 13.0405 16.4764 13.1108 16.7025 13.1108C16.9111 13.1108 17.1202 13.051 17.305 12.9306L20.2754 10.9985L23.2457 12.9306C23.6312 13.1814 24.1214 13.1695 24.4942 12.9004C24.867 12.6312 25.0297 12.1717 24.9089 11.7299L23.9775 8.32584L26.7447 6.11585C27.1039 5.82896 27.2439 5.36222 27.1016 4.92673C26.9592 4.49125 26.5698 4.19538 26.1095 4.1731L22.5635 4.00133L21.3033 0.703531C21.14 0.27611 20.7367 0 20.2756 0C19.8145 0 19.4109 0.276211 19.2476 0.703632L17.9875 4.00153L14.4415 4.1733C13.9812 4.19558 13.5918 4.49135 13.4494 4.92694C13.307 5.36232 13.447 5.82906 13.8062 6.11595ZM18.4085 5.59589C18.8453 5.57492 19.2279 5.29881 19.3832 4.89236L20.2754 2.55737L21.1674 4.89216C21.3226 5.29861 21.7052 5.57482 22.1419 5.59579L24.6525 5.71736L22.6935 7.28219C22.3528 7.55426 22.2066 8.00094 22.3212 8.4205L22.9806 10.8307L20.8777 9.46284C20.6947 9.34379 20.4851 9.28431 20.2754 9.28431C20.0658 9.28431 19.8561 9.34379 19.6733 9.46284L17.5702 10.8308L18.2296 8.4207C18.3444 8.00134 18.1983 7.55457 17.8575 7.28249L15.8983 5.71777L18.4085 5.59589ZM6.881 16.1176L9.85126 18.0497C10.2369 18.3005 10.7269 18.2888 11.0997 18.0195C11.4725 17.7504 11.6354 17.291 11.5144 16.8491L10.583 13.4449L13.3502 11.2349C13.7093 10.948 13.8493 10.4813 13.707 10.0458C13.5645 9.61032 13.1751 9.31455 12.7149 9.29228L9.1689 9.1205L7.90889 5.8225C7.74566 5.39518 7.34229 5.11897 6.8812 5.11897C6.42011 5.11897 6.01654 5.39518 5.8532 5.8226L4.59299 9.1206L1.047 9.29238C0.586718 9.31466 0.197352 9.61042 0.0549158 10.046C-0.0875203 10.4816 0.0525825 10.9483 0.411818 11.2351L3.17887 13.4451L2.24756 16.8492C2.12663 17.291 2.28936 17.7504 2.66219 18.0196C2.85616 18.1597 3.08179 18.23 3.30802 18.23C3.5166 18.23 3.72569 18.1701 3.91053 18.0498L6.881 16.1176ZM2.50382 10.8365L5.01451 10.7149C5.45136 10.6938 5.83383 10.4175 5.98884 10.0114L6.881 7.67644L7.77325 10.0115C7.92847 10.4177 8.31094 10.6938 8.74758 10.7149L11.2583 10.8365L9.29916 12.4012C8.95829 12.6733 8.8122 13.1201 8.92694 13.5394L9.58637 15.9495L7.4832 14.5814C7.30039 14.4626 7.0908 14.4031 6.8812 14.4031C6.6716 14.4031 6.46191 14.4626 6.27899 14.5815L4.17593 15.9495L4.83535 13.5394C4.95009 13.1199 4.8039 12.673 4.46323 12.4012L2.50382 10.8365ZM26.8438 10.0458C26.7013 10.4813 26.8414 10.9481 27.2006 11.235L29.9677 13.445L29.0364 16.8491C28.9155 17.2909 29.0782 17.7503 29.451 18.0195C29.645 18.1595 29.8706 18.2299 30.0969 18.2299C30.3055 18.2299 30.5145 18.17 30.6995 18.0497L33.6698 16.1175L36.64 18.0496C37.0255 18.3004 37.5155 18.2886 37.8884 18.0195C38.2612 17.7505 38.4241 17.291 38.3033 16.849L37.3719 13.4449L40.139 11.2349C40.4983 10.948 40.6382 10.4813 40.4958 10.0458C40.3534 9.61032 39.964 9.31455 39.5038 9.29228L35.9579 9.1205L34.6977 5.82271C34.5345 5.39518 34.131 5.11897 33.6698 5.11897C33.2087 5.11897 32.8052 5.39518 32.642 5.8225L31.3817 9.1205L27.8359 9.29228C27.3757 9.31455 26.9862 9.61032 26.8438 10.0458ZM31.8033 10.715C32.2401 10.6939 32.6226 10.4177 32.7776 10.0115L33.6698 7.67644L34.5619 10.0112C34.717 10.4176 35.0995 10.6938 35.5363 10.7149L38.0469 10.8365L36.0877 12.4013C35.7469 12.6734 35.6009 13.1202 35.7156 13.5394L36.375 15.9495L34.2719 14.5814C34.089 14.4626 33.8794 14.4031 33.6698 14.4031C33.4603 14.4031 33.2506 14.4626 33.0675 14.5815L30.9646 15.9495L31.624 13.5394C31.7387 13.12 31.5926 12.6732 31.2519 12.4012L29.2927 10.8364L31.8033 10.715ZM39.3448 30.8119C36.3069 30.8119 33.5928 32.2136 31.8216 34.3998C29.7643 32.4072 27.2258 30.9904 24.479 30.2705C27.1933 28.7894 29.0375 25.9219 29.0375 22.6338C29.0375 17.833 25.1068 13.9274 20.2755 13.9274C15.4441 13.9274 11.5134 17.833 11.5134 22.6338C11.5134 25.9195 13.355 28.7851 16.0661 30.2671C13.5281 30.9296 11.1688 32.1882 9.18838 33.9679C6.1674 36.6825 4.26601 40.3844 3.83455 44.3915C3.81 44.6191 3.88395 44.8463 4.03785 45.0164C4.19175 45.1866 4.41119 45.2838 4.64148 45.2838L31.0336 45.2837C32.7167 48.1045 35.8119 50 39.3447 50C44.6687 50 49 45.6962 49 40.4059C49 35.1157 44.6688 30.8119 39.3448 30.8119ZM13.1367 22.6338C13.1367 18.7224 16.3392 15.5403 20.2756 15.5403C24.2119 15.5403 27.4144 18.7224 27.4144 22.6338C27.4144 26.5448 24.2127 29.7266 20.2769 29.7272C20.2765 29.7272 20.276 29.7272 20.2756 29.7272C20.2752 29.7272 20.2747 29.7272 20.2743 29.7272C16.3385 29.7265 13.1367 26.5447 13.1367 22.6338ZM5.57188 43.6709C6.77042 36.5812 12.9384 31.3409 20.2743 31.3402H20.2756H20.2768C24.2673 31.3405 28.1043 32.9458 30.8984 35.7623C30.1287 37.1392 29.6895 38.7225 29.6895 40.4061C29.6895 41.5519 29.893 42.6514 30.2654 43.6709H5.57188ZM39.3448 48.3872C34.9159 48.3872 31.3127 44.8068 31.3127 40.406C31.3127 36.0052 34.9159 32.4248 39.3448 32.4248C43.7737 32.4248 47.3769 36.0052 47.3769 40.406C47.3769 44.8068 43.7737 48.3872 39.3448 48.3872ZM44.9079 36.288C44.5055 35.8905 43.9691 35.6735 43.4036 35.6747C42.8368 35.6769 42.3052 35.8983 41.9068 36.2981L38.1805 40.0379L36.7811 38.6473C35.9532 37.8249 34.6062 37.8247 33.7782 38.6474C32.9505 39.47 32.9505 40.8085 33.7782 41.6313L36.6847 44.5192C37.0986 44.9305 37.6422 45.1361 38.186 45.1361C38.7297 45.1361 39.2735 44.9304 39.6874 44.5191C40.7905 43.4231 41.9031 42.3017 42.979 41.2172C43.6247 40.5665 44.2704 39.9158 44.9176 39.2666C45.7401 38.442 45.7356 37.1058 44.9079 36.288ZM43.7647 38.1313C43.1164 38.7814 42.4698 39.4331 41.8232 40.0848C40.7493 41.1672 39.6387 42.2866 38.5397 43.3786C38.3448 43.5724 38.0273 43.5724 37.8324 43.3786L34.926 40.4908C34.731 40.2969 34.731 39.9816 34.926 39.7879C35.0235 39.691 35.1516 39.6426 35.2797 39.6426C35.4077 39.6426 35.5358 39.691 35.6333 39.7879L37.6094 41.7515C37.7615 41.9027 37.968 41.9877 38.1833 41.9877H38.1853C38.4012 41.9872 38.608 41.9012 38.76 41.7487L43.0602 37.433C43.1531 37.3398 43.2773 37.2882 43.4098 37.2877C43.5441 37.2827 43.6687 37.3382 43.7632 37.4317C43.9575 37.6235 43.9581 37.9375 43.7647 38.1313Z" fill="#E61F7F"/>
</svg>
