<svg width="45" height="50" viewBox="0 0 45 50" fill="none" xmlns="http://www.w3.org/2000/svg">
<path d="M43.9564 26.1213C41.6695 23.834 39.0256 25.9749 39.0256 25.9749V13.9337C39.0256 13.5293 38.6994 13.2012 38.2969 13.2012C37.8941 13.2012 37.5679 13.5293 37.5679 13.9337V27.0052C37.5679 27.0052 34.0917 29.7583 32.5976 30.4312V8.75061C32.5976 7.74275 33.4136 6.92297 34.4168 6.92297H35.7488C36.7519 6.92297 37.5679 7.74275 37.5679 8.75061V10.9353C37.5679 11.34 37.8941 11.6677 38.2969 11.6677C38.6994 11.6677 39.0256 11.34 39.0256 10.9353V8.75061C39.0256 6.93518 37.5558 5.4585 35.7488 5.4585H34.4168C32.6098 5.4585 31.1396 6.93518 31.1396 8.75061V31.0118C30.7048 31.1343 30.2586 31.2174 29.8053 31.2613V15.8204C29.8053 13.9959 28.3279 12.5115 26.5121 12.5115H25.2124C23.3967 12.5115 21.9192 13.9959 21.9192 15.8204V23.2828L20.5846 23.9946V21.5112C20.5846 19.8686 19.2545 18.5323 17.6199 18.5323H15.6636C14.0286 18.5323 12.6989 19.8686 12.6989 21.5112V28.2L10.3186 29.4692L3.63427 31.3883C2.47124 31.7221 1.49997 32.4874 0.900036 33.5425C0.299726 34.5981 0.136833 35.8272 0.441355 37.0032L1.18899 39.8933C1.28999 40.2847 1.68792 40.5193 2.07787 40.4178C2.46745 40.3159 2.70134 39.9162 2.59996 39.5244L1.85233 36.6347C1.41871 34.9585 2.37746 33.2724 4.03524 32.7967L10.1466 31.042L14.7398 43.3582C15.0474 44.1829 14.9988 46.5359 12.5691 47.4029L7.95073 48.457C6.34117 48.8239 4.75516 47.8546 4.33976 46.2494L3.40228 42.625C3.30089 42.2336 2.90297 41.9986 2.51339 42.1001C2.12344 42.2019 1.88992 42.6017 1.99092 42.9935L2.92879 46.6183C3.45581 48.6546 5.25636 50 7.26081 50C8.73368 50 12.8922 48.8312 12.8922 48.8312C14.1577 48.5428 15.2368 47.7188 15.8523 46.5713C16.3604 45.6245 16.5111 44.535 16.2932 43.497L32.2711 39.5671C33.5924 39.2417 34.847 38.6111 35.898 37.7433L43.6735 31.3246C46.044 29.2124 44.6535 26.8183 43.9564 26.1213ZM25.2124 13.9764H26.5121C27.524 13.9764 28.3472 14.8038 28.3472 15.8204V31.2979L23.7471 31.296C23.3245 31.2922 23.6169 31.0118 23.64 30.9928L24.9648 29.9147C26.2008 28.9088 27.008 27.5103 27.3638 25.7574C27.5897 24.6454 27.1675 23.5323 26.2627 22.8525C25.4174 22.2177 24.3303 22.0957 23.3773 22.5153V15.8204C23.3773 14.8038 24.2005 13.9764 25.2124 13.9764ZM14.157 21.5112C14.157 20.6766 14.8328 19.9972 15.6636 19.9972H17.6199C18.4506 19.9972 19.1269 20.6766 19.1269 21.5112V24.7721L14.1566 27.4226V21.5112H14.157ZM42.7482 30.1932L34.9723 36.6118C34.0891 37.3412 33.035 37.8711 31.9244 38.1442L15.8288 42.1035L11.5002 30.498L23.8595 23.9069C24.3619 23.6387 24.9341 23.6834 25.3893 24.0255C25.8446 24.3677 26.0489 24.9056 25.9353 25.4648C25.6487 26.8759 25.0134 27.9902 24.0471 28.7764L22.7223 29.8548C22.1793 30.2966 21.9792 31.0095 22.2124 31.6714C22.4455 32.3329 23.0477 32.7609 23.7464 32.7609L29.058 32.7632H29.0618C30.9527 32.7632 32.77 32.1856 34.3169 31.0927L40.2532 26.8988C41.0843 26.3113 42.2033 26.4151 42.9134 27.1452C43.3223 27.5648 44.1227 28.8119 42.7482 30.1932Z" fill="#E61F7F"/>
<path d="M11.9478 43.8277C11.9478 42.2366 10.6594 40.9419 9.07568 40.9419C7.49194 40.9419 6.20361 42.2366 6.20361 43.8277C6.20361 45.4185 7.49194 46.7132 9.07568 46.7132C10.6594 46.7132 11.9478 45.4185 11.9478 43.8277ZM7.66167 43.8277C7.66167 43.0442 8.29577 42.4067 9.07568 42.4067C9.85521 42.4067 10.4897 43.0442 10.4897 43.8277C10.4897 44.6109 9.85559 45.2483 9.07568 45.2483C8.29577 45.2483 7.66167 44.6109 7.66167 43.8277Z" fill="#E61F7F"/>
<path d="M3.83321 22.9963L14.4307 12.2674L16.8145 13.506C17.6684 13.9497 18.7077 13.7979 19.4003 13.128L25.1687 7.54934C25.1687 7.54934 25.01 10.4146 27.4116 10.4146C28.6479 10.4146 29.6541 9.40368 29.6541 8.16123V2.25298C29.6541 2.24611 29.6537 2.23886 29.6537 2.23162C29.6458 0.690084 28.5238 0 27.4116 0H21.582C20.3453 0 19.3395 1.0109 19.3395 2.25298C19.3395 4.7295 21.8482 4.50596 21.8482 4.50596L17.4474 8.76166L15.0291 7.50509C14.1547 7.05038 13.101 7.21708 12.4069 7.91899L0.649782 19.8221C-0.221255 20.704 -0.215939 22.1334 0.661933 23.0085C1.08492 23.4301 2.52931 24.3063 3.83321 22.9963ZM1.68447 20.854L13.4416 8.95087C13.5935 8.79752 13.8372 8.52897 14.3593 8.8063L17.2416 10.304C17.5192 10.4482 17.8571 10.3989 18.0823 10.1811L24.1621 4.30149C24.3763 4.09435 24.4438 3.77696 24.3326 3.50001C24.2213 3.22268 23.954 3.04148 23.6563 3.04148H21.582C21.1495 3.04148 20.7976 2.68786 20.7976 2.25298C20.7976 1.81848 21.1495 1.46486 21.582 1.46486H27.4116C27.6261 1.46486 28.1957 1.46485 28.1957 2.2484C28.1957 2.25488 28.1961 2.26137 28.1961 2.26824V8.16123C28.1961 8.59572 27.8441 8.94935 27.4116 8.94935C26.9787 8.94935 26.6268 8.59572 26.6268 8.16123V5.82776C26.6268 5.53402 26.4521 5.26852 26.1833 5.1537C25.9144 5.03849 25.6031 5.09647 25.3923 5.30018L18.3891 12.0728C18.1469 12.3071 17.7831 12.3605 17.4847 12.2052L14.6255 10.7194C14.3426 10.5725 13.9975 10.6271 13.7731 10.854L2.79852 21.9644C2.32009 22.4451 1.83673 22.1163 1.68865 21.9686C1.38185 21.6623 1.37995 21.1622 1.68447 20.854Z" fill="#E61F7F"/>
</svg>
