<svg width="19" height="14" viewBox="0 0 19 14" fill="none" xmlns="http://www.w3.org/2000/svg">
<rect width="19" height="14" fill="#006C35"/>
<path d="M4.70732 4.41527C5.04087 4.44694 4.85668 3.85108 4.97754 3.74288C5.00023 3.68958 5.04246 3.68905 5.04562 3.75661V4.26222C5.04246 4.42688 5.15065 4.47491 5.23457 4.50922C5.32218 4.50236 5.38023 4.50552 5.41454 4.5905L5.45571 5.46555C5.45571 5.46555 5.65837 5.52361 5.66787 4.97313C5.6779 4.65013 5.60348 4.37991 5.64729 4.31711C5.64887 4.25536 5.72751 4.25166 5.7824 4.28175C5.86948 4.34297 5.90854 4.41897 6.04365 4.38888C6.25001 4.33241 6.37351 4.23213 6.37668 4.0738C6.36454 3.92338 6.34765 3.77297 6.28273 3.62255C6.29171 3.59511 6.24315 3.52438 6.25212 3.49694C6.28907 3.555 6.34554 3.55025 6.35821 3.49694C6.32337 3.38136 6.26901 3.27052 6.18035 3.2225C6.10751 3.15811 6.0009 3.1713 5.96185 3.30536C5.9439 3.45947 6.01779 3.64313 6.12968 3.7925C6.15343 3.85108 6.18721 3.94819 6.17243 4.0358C6.11279 4.06958 6.05262 4.05586 6.00301 4.00308C6.00301 4.00308 5.83887 3.88011 5.83887 3.85266C5.88268 3.574 5.8489 3.54233 5.82462 3.46527C5.80773 3.35866 5.75707 3.32436 5.7159 3.25152C5.67473 3.20825 5.61932 3.20825 5.59293 3.25152C5.5201 3.37713 5.55387 3.64736 5.60665 3.76822C5.64412 3.87905 5.70218 3.94925 5.67473 3.94925C5.65204 4.01205 5.6056 3.99727 5.57182 3.92497C5.52326 3.77508 5.51376 3.55183 5.51376 3.45102C5.49898 3.32647 5.48315 3.05994 5.40135 2.99238C5.35121 2.9243 5.27679 2.95702 5.25093 3.01983C5.24565 3.14333 5.2446 3.26736 5.25885 3.38188C5.31479 3.58191 5.33273 3.75819 5.36018 3.9635C5.36757 4.23847 5.20132 4.08277 5.20871 3.94661C5.24723 3.7698 5.23721 3.49113 5.2029 3.42041C5.17598 3.35022 5.14379 3.33227 5.07835 3.34388C5.02662 3.33966 4.89257 3.48638 4.85457 3.72916C4.85457 3.72916 4.82237 3.85425 4.80865 3.96561C4.79018 4.09122 4.70785 4.17988 4.64979 3.94819C4.59965 3.77983 4.56904 3.36447 4.48512 3.46158C4.46085 3.78616 4.43182 4.35722 4.70732 4.41527Z" fill="white"/>
<path d="M5.20926 4.65225C4.93482 4.65753 4.53318 5.01272 4.52209 5.20959C4.81132 5.07025 5.09579 4.9362 5.39029 4.79264C5.34279 4.72139 5.38765 4.65753 5.20926 4.65225Z" fill="white"/>
<path d="M6.72234 5.71677C6.84953 5.29296 6.70175 4.98052 6.77089 4.9821C6.91709 5.13991 7.12186 5.00321 7.16673 4.94833C7.18625 4.92088 7.23428 4.90294 7.26806 4.93882C7.38259 5.02116 7.5842 4.9821 7.62589 4.83749C7.65225 4.69225 7.66848 4.54535 7.67445 4.39785C7.58103 4.42688 7.51136 4.44641 7.50503 4.48494L7.4855 4.61055C7.47759 4.65119 7.39684 4.65277 7.39367 4.60105C7.35831 4.44008 7.21159 4.41896 7.12292 4.6686C7.06328 4.71716 6.95561 4.72666 6.944 4.65435C6.95825 4.48705 6.8907 4.46435 6.75559 4.54299C6.71231 4.21102 6.6685 3.89382 6.62523 3.56185C6.6817 3.56027 6.73342 3.60196 6.78461 3.53757C6.72814 3.36182 6.60886 3.00294 6.54289 2.97707C6.5107 2.93802 6.48325 2.9623 6.44156 2.97232C6.37084 2.99502 6.30486 3.05624 6.32545 3.17499C6.40936 3.6843 6.46425 4.07221 6.54764 4.58152C6.56031 4.64116 6.5107 4.7198 6.44631 4.71188C6.33706 4.63799 6.30961 4.4881 6.12278 4.49444C5.98714 4.49602 5.8325 4.64274 5.8135 4.78471C5.79081 4.89713 5.78289 5.01957 5.8135 5.11827C5.9085 5.23227 6.02303 5.22119 6.12278 5.19532C6.20459 5.16155 6.27267 5.07921 6.30117 5.09874C6.3207 5.12249 6.30592 5.39324 5.91484 5.60119C5.67786 5.70727 5.48945 5.73155 5.38811 5.53838C5.32531 5.41752 5.39286 4.95835 5.23823 5.06496C4.78064 6.24455 6.30961 6.40816 6.48061 5.11352C6.49698 5.06021 6.56136 5.00691 6.57245 5.09399C6.53709 6.26671 5.3897 6.34746 5.19495 5.97855C5.14639 5.89146 5.13214 5.6983 5.12739 5.58219C5.09836 5.35155 4.9775 5.44021 4.9585 5.66874C4.93898 5.79594 4.94425 5.83183 4.94425 5.95374C5.00495 6.87999 6.48273 6.48205 6.72234 5.71677ZM6.15234 4.9156C6.14284 4.93355 6.10114 4.92616 6.07053 4.92616C6.0357 4.92457 6.01934 4.91877 5.99823 4.8908C5.98873 4.85913 6.01828 4.82905 6.03148 4.8053C6.04784 4.77732 6.13598 4.7483 6.16711 4.82641C6.17288 4.84123 6.17455 4.85734 6.17195 4.87303C6.16935 4.88872 6.16257 4.90343 6.15234 4.9156Z" fill="white"/>
<path d="M7.17889 3.86585C7.27072 3.83207 7.70614 3.33438 7.70614 3.33438C7.68344 3.31485 7.66339 3.3006 7.64069 3.28107C7.61642 3.25996 7.61905 3.23885 7.64069 3.21827C7.74836 3.15546 7.71405 3.01771 7.65758 2.95491C7.62106 2.93699 7.58085 2.92785 7.54017 2.92821C7.49948 2.92858 7.45945 2.93844 7.42325 2.95702C7.34778 3.02932 7.32983 3.14544 7.38947 3.21827C7.44753 3.24571 7.50558 3.3043 7.46705 3.33649C7.28919 3.52649 6.80153 3.85424 6.858 3.86585C6.87014 3.88169 7.16939 3.88116 7.17889 3.86585ZM7.50136 3.08421C7.52933 3.07735 7.56522 3.10216 7.58211 3.1391C7.599 3.17605 7.59003 3.21141 7.56258 3.21827H7.56153C7.53408 3.22513 7.49819 3.20032 7.4813 3.16338C7.46494 3.12591 7.47392 3.09107 7.50136 3.08421ZM4.67722 6.10838C4.60544 6.25457 4.57536 6.1543 4.56903 6.07249C4.56078 5.93511 4.56768 5.79723 4.58961 5.66135C4.60755 5.54524 4.58961 5.5806 4.55267 5.62757C4.38958 5.88724 4.37533 6.27569 4.46558 6.39127C4.51308 6.44616 4.59172 6.47044 4.6503 6.45249C4.75269 6.40816 4.79755 6.20021 4.77328 6.12474C4.73844 6.07144 4.71153 6.06299 4.67722 6.10838ZM10.0505 3.35971C10.2384 3.61199 10.4168 3.86902 10.5915 4.1308C10.6258 4.35774 10.6506 4.57941 10.6654 4.79949C10.6944 5.22382 10.7029 5.68299 10.6765 6.13002C10.7556 6.13319 10.8839 6.00124 10.9282 5.8086C10.9572 5.54207 10.9177 5.0676 10.915 4.91032C10.9115 4.81175 10.9068 4.71322 10.9008 4.61477C11.1087 4.95466 11.3114 5.31038 11.5093 5.70569C11.5816 5.67191 11.5658 5.26763 11.5236 5.21063C11.3652 4.87127 11.1472 4.5356 11.0776 4.40682C11.0517 4.35932 10.9636 4.22421 10.8586 4.06957C10.8495 3.94615 10.8347 3.82322 10.8142 3.70119C10.7815 3.4753 10.9076 3.72599 10.8902 3.59457C10.8496 3.36869 10.724 3.21616 10.5772 3.00927C10.5297 2.94224 10.5313 2.92852 10.458 3.02563C10.432 3.08381 10.4201 3.14726 10.4231 3.21088C10.4002 3.1772 10.3757 3.14462 10.3498 3.11324C10.2701 3.04452 10.1901 2.97626 10.1096 2.90846C10.0563 2.87046 9.9265 2.80185 9.90328 2.91585C9.89247 2.99576 9.89641 3.07697 9.91489 3.15546C9.92861 3.21194 10.0104 3.30588 10.0505 3.35971ZM10.4411 3.34705C10.4511 3.39085 10.4617 3.43466 10.4685 3.47952L10.4764 3.52227C10.4543 3.49133 10.4312 3.46106 10.4073 3.43149C10.3207 3.3291 10.3925 3.35127 10.4411 3.34705Z" fill="white"/>
<path d="M11.5685 5.8102C11.3848 6.00178 11.1198 6.23769 10.8317 6.34694C10.8005 6.38178 10.9087 6.53114 11.0481 6.53114C11.2819 6.5037 11.4877 6.37228 11.6782 6.02658C11.7294 5.94636 11.8191 5.77378 11.8213 5.63972C11.8387 4.85545 11.7822 4.24481 11.6645 3.67797C11.6566 3.63249 11.6588 3.58584 11.6708 3.54128C11.6856 3.52333 11.7373 3.54128 11.7648 3.49695C11.8044 3.45578 11.6587 3.118 11.5753 2.98817C11.5458 2.93011 11.5357 2.89106 11.4866 2.99503C11.4349 3.07947 11.4006 3.22672 11.4048 3.36394C11.5162 4.13608 11.5505 4.81217 11.6233 5.58431C11.6291 5.65872 11.6181 5.76745 11.5685 5.8102ZM14.6454 3.85214C14.6375 3.79725 14.6132 3.66953 14.6227 3.65317C14.6375 3.61411 14.714 3.65739 14.7415 3.61253C14.7816 3.57189 14.5441 3.26683 14.4612 3.137C14.4311 3.07895 14.4211 3.03989 14.372 3.14386C14.3203 3.22831 14.3023 3.37978 14.3229 3.51278C14.447 4.35142 14.5393 4.98158 14.5583 5.72522C14.5472 5.79594 14.5451 5.83395 14.5119 5.92261C14.4385 6.01656 14.3578 6.13372 14.2812 6.19072C14.2052 6.24719 14.0432 6.30156 13.9899 6.34325C13.8226 6.44089 13.8221 6.55225 13.9582 6.55595C14.1915 6.5285 14.4681 6.5095 14.6586 6.22133C14.7098 6.14111 14.7705 5.92314 14.7731 5.78908C14.7905 5.00481 14.7631 4.41897 14.6454 3.85214ZM12.8768 4.505C12.8789 4.39733 12.889 4.25483 12.8948 4.16564C12.8974 4.13239 12.9053 4.09492 12.937 4.08647C12.9692 4.07803 13.0262 4.1192 13.0267 4.08436C13.0204 4.01628 13.0066 3.91494 12.9681 3.86692C12.9153 3.78881 12.7755 3.80781 12.7507 3.93025C12.7512 3.97564 12.7718 3.99992 12.7681 4.04108C12.7618 4.06431 12.7375 4.08014 12.68 4.0527C12.6895 4.04425 12.6425 3.97933 12.6425 3.97933C12.5976 3.95189 12.5375 3.98092 12.4989 4.00572C12.485 4.03233 12.4767 4.06153 12.4745 4.09149C12.4723 4.12145 12.4763 4.15154 12.4863 4.17989C12.5496 4.2997 12.7707 4.50289 12.8768 4.505Z" fill="white"/>
<path d="M12.8023 3.58719C12.9569 3.77666 13.1147 3.96877 13.2736 4.16405C13.3079 4.59999 13.3169 4.95677 13.3507 5.39272C13.3459 5.57744 13.2889 5.73841 13.2346 5.76163C13.2346 5.76163 13.1527 5.80913 13.0979 5.75688C13.0577 5.74052 12.8978 5.49035 12.8978 5.49035C12.816 5.41541 12.7622 5.43652 12.7041 5.49035C12.5437 5.64499 12.4714 5.93527 12.3627 6.13477C12.3342 6.17963 12.255 6.21763 12.1669 6.1316C11.9436 5.82602 12.0745 5.39166 12.0471 5.50355C11.8481 5.72785 11.9357 6.09888 11.9806 6.1791C12.046 6.30999 12.0993 6.39444 12.227 6.45935C12.3431 6.54485 12.4339 6.49102 12.4835 6.43138C12.6007 6.30947 12.6023 6.00072 12.6572 5.93844C12.6952 5.82602 12.7928 5.84502 12.8398 5.89516C12.8828 5.95586 12.9398 6.00529 13.006 6.03924C13.1153 6.13583 13.2456 6.15324 13.3739 6.0651C13.4615 6.01602 13.519 5.95216 13.5702 5.82602C13.6272 5.67402 13.5961 4.97524 13.5845 4.55619C13.6663 4.66174 13.746 4.77205 13.8267 4.88235C13.8621 5.23227 13.8821 5.5806 13.8705 5.93633C13.8621 6.00758 14.1186 5.72522 14.1165 5.59116C14.1154 5.48297 14.1165 5.3848 14.1165 5.29244C14.24 5.47822 14.3603 5.6698 14.4732 5.87247C14.544 5.83552 14.5207 5.43705 14.4759 5.38216C14.3455 5.16366 14.1719 4.93619 14.0521 4.77363C14.0442 4.75305 14.0399 4.72983 14.0304 4.7103C13.9824 4.59894 14.0125 4.50922 13.9898 4.39099C13.9676 4.27224 13.9734 4.09491 13.9391 3.95399C13.9296 3.8991 13.9011 3.72283 13.9096 3.70647C13.9233 3.66688 13.9761 3.70752 14.0019 3.66213C14.0405 3.61991 13.8684 3.17394 13.7808 3.04622C13.7491 2.98922 13.6921 3.00874 13.6214 3.10163C13.5565 3.16285 13.5808 3.30219 13.6056 3.43466C13.6673 3.75555 13.7191 4.06324 13.7634 4.36777C13.6685 4.24159 13.5726 4.11616 13.4757 3.99147L13.4715 3.96824C13.4715 3.96244 13.4573 3.69169 13.4446 3.6273C13.4425 3.60144 13.4362 3.59352 13.4636 3.59669C13.4926 3.62097 13.4963 3.62255 13.5148 3.63099C13.5444 3.63627 13.5702 3.58613 13.5528 3.54022L13.2799 3.03777C13.2583 3.01613 13.2298 2.99291 13.1955 3.04358C13.1742 3.06218 13.1571 3.08514 13.1455 3.11091C13.1338 3.13668 13.1278 3.16466 13.1279 3.19294C13.1364 3.31169 13.157 3.43308 13.1649 3.55235L13.1765 3.61674C13.1644 3.60249 13.1496 3.58455 13.1432 3.57822C12.9116 3.33438 13.2499 3.53863 13.0989 3.35022C12.9712 3.20983 12.9342 3.16602 12.8245 3.08158C12.7696 3.04622 12.7363 2.97866 12.7184 3.09372C12.7094 3.1946 12.7067 3.29596 12.7105 3.39719C12.7105 3.44574 12.7596 3.53441 12.8023 3.58719ZM8.10455 4.15666C8.23755 4.21155 8.32252 3.95822 8.37741 3.6806C8.41436 3.60249 8.44286 3.59405 8.46186 3.63416C8.45711 4.0036 8.48825 4.08541 8.58325 4.19783C8.79489 4.36144 8.97011 4.21841 8.98436 4.20469L9.14902 4.04002C9.18544 4.00149 9.23452 3.99885 9.28625 4.03316C9.33691 4.07855 9.33005 4.15772 9.43772 4.2126C9.5285 4.24902 9.72272 4.22105 9.76758 4.14294C9.82827 4.03949 9.84305 4.0036 9.8705 3.96455C9.91377 3.90702 9.98766 3.93288 9.98766 3.95083C9.9808 3.98302 9.93752 4.01522 9.96708 4.07274C10.0188 4.11127 10.0304 4.08647 10.061 4.07802C10.1687 4.0263 10.2489 3.79302 10.2489 3.79302C10.2537 3.70594 10.2051 3.71333 10.1734 3.73127C10.1323 3.75608 10.1296 3.76452 10.0885 3.78985C10.0357 3.79777 9.93383 3.8326 9.88369 3.75449C9.83197 3.66055 9.83091 3.52966 9.79186 3.43519C9.79186 3.42833 9.72325 3.28583 9.78711 3.27685C9.8193 3.28266 9.88738 3.3006 9.89847 3.2436C9.93172 3.18766 9.82616 3.02827 9.75438 2.94752C9.69158 2.87891 9.6045 2.87047 9.52058 2.94066C9.46147 2.99502 9.46991 3.05519 9.4583 3.11272C9.44871 3.15331 9.44873 3.19558 9.45835 3.23617C9.46797 3.27676 9.48693 3.31455 9.51372 3.34652C9.5723 3.4621 9.67944 3.61147 9.64408 3.82047C9.64408 3.82047 9.5818 3.91969 9.47255 3.90702C9.42716 3.89699 9.35327 3.87747 9.31422 3.58719C9.28466 3.3671 9.32161 3.05941 9.22819 2.91533C9.19441 2.82824 9.17013 2.74433 9.0878 2.89316C9.06563 2.95174 8.97063 3.04041 9.03977 3.22355C9.09625 3.33913 9.11894 3.52755 9.09361 3.7376C9.05455 3.79724 9.04611 3.8173 8.99491 3.87694C8.92313 3.95399 8.84555 3.93447 8.78591 3.90544C8.72997 3.86797 8.68669 3.84844 8.66136 3.72916C8.66611 3.53916 8.67666 3.22777 8.64183 3.1618C8.59064 3.05941 8.50619 3.09635 8.46977 3.12749C8.29614 3.28635 8.21063 3.55394 8.15838 3.76663C8.11036 3.9218 8.05916 3.87747 8.02327 3.81466C7.93566 3.73233 7.92986 3.09002 7.82377 3.1961C7.6533 3.67849 7.91983 4.20838 8.10455 4.15666Z" fill="white"/>
<path d="M10.6279 5.19322L10.5772 5.1642L9.58447 5.15945C9.53328 5.13992 9.54858 5.12303 9.58447 5.10931C9.82144 5.07711 10.2431 5.0085 10.2711 4.60369C10.2664 4.39311 10.1803 4.25483 9.92172 4.21683C9.73225 4.23161 9.59661 4.41581 9.61825 4.61794C9.60928 4.67283 9.63619 4.77944 9.58078 4.79158C9.21608 4.82483 8.81866 5.05283 8.80547 5.21645C8.7833 5.23175 8.73369 5.18742 8.74003 5.11775C8.72245 4.81975 8.63669 4.52976 8.48933 4.27014C8.37428 4.15508 8.41016 4.19308 8.33311 4.24745C8.2835 4.30445 8.27453 4.3435 8.27716 4.45697C8.27716 4.46119 8.37005 4.72033 8.44869 4.90189C8.50094 5.0882 8.55003 5.30089 8.51466 5.50197C8.39222 5.76797 8.14575 6.00653 7.90825 6.13583C7.7858 6.17542 7.68078 6.16117 7.65491 6.13372C7.57944 6.08306 7.58314 5.98964 7.58894 5.98806C7.78897 5.8482 8.01803 5.73578 8.19747 5.35947C8.25025 5.21592 8.26608 5.12883 8.21383 4.90664C8.19931 4.82834 8.16332 4.75561 8.10986 4.69658C8.14205 4.67547 8.23441 4.74567 8.24866 4.70397C8.22191 4.58235 8.16135 4.47075 8.07397 4.38203C8.00272 4.31711 7.92514 4.30972 7.85969 4.36936C7.7858 4.41053 7.76997 4.55725 7.80533 4.68603C7.84439 4.78314 7.95047 4.7995 8.02647 4.99425C8.02647 4.99847 8.05391 5.13992 8.01486 5.19533C7.98372 5.29245 7.57997 5.60964 7.5578 5.62389C7.54672 5.63761 7.55147 5.61703 7.54989 5.56425C7.54725 5.49986 7.57575 5.34786 7.56783 5.34681C7.43641 5.43178 7.39261 5.69197 7.36886 5.76903C7.03636 5.99861 6.66005 6.16961 6.44261 6.40289C6.32914 6.5797 7.22266 6.1997 7.32664 6.15378C7.34986 6.17067 7.34722 6.25036 7.4095 6.32161C7.50239 6.44722 7.69872 6.52481 7.89136 6.47678C8.2133 6.36014 8.39961 6.14058 8.58855 5.89728C8.61547 5.8577 8.65769 5.82761 8.69675 5.8577C8.82658 6.1485 9.20183 6.35433 9.6858 6.37597C9.79822 6.23928 9.74386 6.17331 9.69847 6.14481C9.69847 6.14058 9.45939 6.04981 9.42297 5.95903C9.4008 5.8767 9.45464 5.80439 9.5623 5.7495C9.87316 5.71203 10.1787 5.67033 10.4748 5.57533C10.478 5.47611 10.5355 5.32728 10.5751 5.26289C10.6131 5.19745 10.6337 5.21697 10.6279 5.19322ZM9.81141 4.57467C9.82619 4.54986 9.87528 4.55092 9.92119 4.57783C9.96711 4.60422 9.99297 4.64644 9.97766 4.67125C9.96289 4.69658 9.91328 4.695 9.86736 4.66808C9.82144 4.6417 9.79664 4.6 9.81141 4.57467ZM9.41189 5.57745C9.30528 5.61386 9.20289 5.64236 9.20289 5.79647C9.24247 6.01075 9.14853 5.93739 9.09311 5.90783C9.02766 5.86086 8.84347 5.74739 8.81708 5.5025C8.81286 5.44392 8.85878 5.39483 8.93214 5.39483C9.04244 5.42492 9.20553 5.42703 9.34697 5.44181C9.46255 5.4492 9.52008 5.53997 9.41189 5.57745ZM5.73486 3.19981C5.84886 3.25469 6.06419 3.23147 6.05469 3.04675C6.05469 3.03039 6.05047 2.9755 6.04889 2.96072C6.02566 2.90636 5.96233 2.91956 5.94755 2.97603C5.9428 2.9945 5.95547 3.02406 5.93911 3.03356C5.92961 3.04306 5.89319 3.03725 5.89478 2.98658C5.89478 2.97022 5.88264 2.95281 5.87578 2.94278C5.86839 2.93803 5.86416 2.93645 5.85097 2.93645C5.83514 2.93697 5.83514 2.94119 5.82669 2.95492C5.823 2.96811 5.81772 2.98183 5.81772 2.99714C5.81561 3.01508 5.80875 3.02142 5.79555 3.02458C5.78078 3.02458 5.78394 3.02617 5.77233 3.01825C5.76494 3.01033 5.75597 3.00717 5.75597 2.99397C5.75593 2.97855 5.75343 2.96323 5.74858 2.94858C5.74225 2.94014 5.73222 2.93644 5.72061 2.93328C5.65833 2.93328 5.65411 3.00453 5.6578 3.03197C5.652 3.03672 5.64989 3.16444 5.73486 3.19981Z" fill="white"/>
<path d="M9.24256 4.40314C9.24256 4.38678 9.23042 4.36989 9.22356 4.35933C9.21617 4.35458 9.21195 4.353 9.19875 4.353C9.18292 4.35353 9.18345 4.35775 9.17447 4.37147C9.17078 4.38519 9.1655 4.39839 9.1655 4.41369C9.16392 4.43217 9.15653 4.4385 9.14333 4.44114C9.12856 4.44114 9.13172 4.44272 9.11958 4.43533C9.1122 4.42742 9.10322 4.42425 9.10322 4.41105C9.10322 4.39563 9.10073 4.3803 9.09583 4.36567C9.0895 4.35722 9.07947 4.35353 9.06786 4.35089C9.00558 4.35089 9.00136 4.42214 9.00453 4.44905C8.99978 4.45433 8.99714 4.58153 9.08211 4.61742C9.19664 4.67178 9.46845 4.64011 9.40195 4.46436C9.40083 4.43546 9.3989 4.4066 9.39614 4.3778C9.37292 4.32344 9.30906 4.33717 9.29481 4.39311C9.29059 4.41158 9.30325 4.44114 9.28636 4.45064C9.27792 4.46014 9.24097 4.45433 9.24256 4.40314ZM11.0354 4.03C11.1494 4.08489 11.3642 4.06167 11.3547 3.87747C11.3536 3.84857 11.3517 3.81971 11.3489 3.79092C11.3257 3.73655 11.2624 3.75028 11.2481 3.80622C11.2434 3.82469 11.256 3.85425 11.2391 3.86375C11.2296 3.87325 11.1932 3.86797 11.1948 3.81678C11.1948 3.80042 11.1827 3.783 11.1758 3.77297C11.1684 3.76822 11.1642 3.76664 11.1505 3.76664C11.1346 3.76769 11.1352 3.77139 11.1262 3.78511C11.1225 3.79883 11.1172 3.81203 11.1172 3.82733C11.1151 3.8458 11.1083 3.85214 11.0951 3.85478C11.0803 3.85478 11.0834 3.85636 11.0713 3.84897C11.0639 3.84105 11.0555 3.83789 11.0555 3.82469C11.0554 3.8091 11.0529 3.7936 11.0481 3.77878C11.0412 3.77033 11.0317 3.76664 11.0196 3.764C10.9573 3.764 10.9531 3.83525 10.9568 3.86217C10.9531 3.86744 10.9504 3.99464 11.0354 4.03ZM11.1125 3.31644C11.1531 3.43044 11.0813 3.53917 11.1241 3.555C11.1626 3.57294 11.2175 3.4373 11.2376 3.31222C11.2613 3.21089 11.189 3.00347 11.0866 2.96072C11.0243 2.94594 10.9357 2.98289 10.9642 3.06628C10.9499 3.10639 11.0898 3.24255 11.1125 3.31644ZM12.1654 5.98911C12.2451 5.98964 12.3369 5.80703 12.376 5.626C12.3976 5.37689 12.3612 5.22542 12.3549 5.07869C12.348 4.9325 12.1897 3.81625 12.1569 3.70542C12.1184 3.49589 12.3116 3.67744 12.2905 3.55553C12.2234 3.40194 12.0572 3.17869 12.0044 3.04517C11.9728 2.98817 11.9865 2.9375 11.9158 3.03039C11.8508 3.24414 11.8281 3.4183 11.8529 3.5513C12.0208 4.42742 12.1928 5.15575 12.1654 5.98911ZM14.1477 3.69855C14.1662 3.75555 14.1198 3.93975 14.1583 3.95664C14.1936 3.97564 14.2433 3.82944 14.2617 3.6938C14.2718 3.61939 14.2174 3.35972 14.124 3.31328C14.067 3.29744 13.9862 3.33703 14.0126 3.4278C13.9994 3.47161 14.1271 3.61833 14.1477 3.69855ZM7.22381 5.62811C7.25811 5.64236 7.30508 5.53469 7.32303 5.43494C7.33306 5.38005 7.28028 5.18953 7.19108 5.15522C7.1362 5.14361 7.06125 5.15839 7.08447 5.23967C7.08184 5.28347 7.20586 5.33625 7.21325 5.43811C7.2312 5.48033 7.18686 5.61597 7.22381 5.62811ZM4.81925 3.19242C4.83667 3.23622 4.80183 3.37608 4.83825 3.38928C4.8715 3.40405 4.91847 3.29217 4.93589 3.18925C4.94592 3.13225 4.938 2.93908 4.80606 2.8995C4.7517 2.88736 4.67622 2.91744 4.70103 2.98658C4.68836 3.0193 4.79972 3.13119 4.81925 3.19242ZM7.40642 3.8115C7.30561 3.86639 7.26603 4.02894 7.32936 4.12342C7.38795 4.20733 7.48083 4.17619 7.4935 4.17619C7.59272 4.18833 7.65131 3.99042 7.65131 3.99042C7.65131 3.99042 7.65447 3.935 7.53678 4.04003C7.48717 4.04953 7.48083 4.03105 7.4687 4.00255C7.45668 3.9509 7.46206 3.89672 7.484 3.84844C7.50089 3.79936 7.46289 3.77772 7.40642 3.8115ZM8.16747 3.20297C8.18374 3.19292 8.1977 3.17954 8.20843 3.16371C8.21917 3.14789 8.22643 3.12997 8.22975 3.11114C8.24506 3.03408 8.14795 3.14755 8.13581 3.06153C8.11417 2.98183 8.17645 2.94911 8.23556 2.87205C8.23767 2.81875 8.23661 2.78128 8.16431 2.82455C8.11364 2.85886 8.01231 2.96336 8.00914 3.08369C8.00597 3.15178 7.99331 3.15125 8.03817 3.19453C8.07036 3.2415 8.10256 3.23675 8.16747 3.20297ZM8.85306 3.24414C8.9185 3.0668 8.9185 2.99186 8.92325 2.91639C8.9032 2.80186 8.82561 2.80555 8.77442 2.93275C8.75225 2.98078 8.72639 3.23358 8.73061 3.23358C8.7132 3.30905 8.80925 3.34125 8.85306 3.24414ZM13.165 4.50183C13.165 4.50183 12.6356 4.87814 12.623 4.89133C12.5702 4.93778 12.5966 5.10244 12.623 5.08344C12.6604 5.09822 13.193 4.73669 13.1824 4.69447C13.2072 4.69553 13.2194 4.48283 13.165 4.50183ZM13.1001 5.52255C13.1354 5.54155 13.2289 5.42597 13.2252 5.28189C13.2357 5.20747 13.1983 4.93461 13.1054 4.88817C13.0484 4.87233 12.9724 4.92089 12.9988 5.01114C12.9856 5.05442 13.0642 5.20589 13.0848 5.28611C13.1033 5.34364 13.0616 5.50567 13.1001 5.52255ZM10.1023 6.31211C10.1023 6.31686 10.1472 6.35539 10.1999 6.32478C10.3108 6.28203 10.3804 6.24086 10.5356 6.20655C10.5763 6.20603 10.5736 6.09678 10.5092 6.09308C10.4253 6.0973 10.3472 6.10153 10.2633 6.16803C10.2116 6.17964 10.2031 6.1485 10.1915 6.12C10.1788 6.0498 10.2205 6.00125 10.2116 5.949C10.2147 5.95217 10.1635 5.90519 10.1113 5.93158C10.1086 5.93158 9.99464 6.00864 9.95822 6.06247C9.93553 6.07989 9.93817 6.09467 9.94503 6.12369C9.96245 6.1638 9.99358 6.15167 10.0284 6.13267C10.0749 6.12633 10.097 6.15694 10.0933 6.21236C10.0712 6.28255 10.1023 6.30842 10.1023 6.31211ZM13.5598 6.39972C13.5424 6.4298 13.5308 6.47519 13.5846 6.48944C13.6838 6.51742 13.9123 6.36858 13.9123 6.36594C13.9493 6.33797 13.9371 6.28572 13.934 6.28572C13.9123 6.26092 13.8638 6.27517 13.8311 6.27147C13.8158 6.27147 13.764 6.26355 13.7888 6.21817C13.8063 6.1937 13.8201 6.16686 13.83 6.13847C13.8453 6.10417 13.8321 6.08147 13.7762 6.063C13.7197 6.05244 13.697 6.05772 13.6342 6.063C13.6004 6.07039 13.5888 6.08517 13.5825 6.12633C13.5851 6.18861 13.6226 6.18544 13.6616 6.21025C13.6843 6.23928 13.6991 6.26567 13.6601 6.31264C13.6231 6.34694 13.5973 6.36594 13.5598 6.39972ZM13.4584 9.13889H12.6668V8.875C12.6668 8.80501 12.639 8.73789 12.5895 8.6884C12.54 8.63891 12.4729 8.61111 12.4029 8.61111C12.3329 8.61111 12.2658 8.63891 12.2163 8.6884C12.1668 8.73789 12.139 8.80501 12.139 8.875V9.13889H5.80567C5.80567 9.13889 5.80567 9.66667 7.389 9.66667H12.139V9.93055C12.139 10.0005 12.1668 10.0677 12.2163 10.1172C12.2658 10.1666 12.3329 10.1944 12.4029 10.1944C12.4729 10.1944 12.54 10.1666 12.5895 10.1172C12.639 10.0677 12.6668 10.0005 12.6668 9.93055V9.66667H13.1946V9.93055C13.1946 10.0005 13.2224 10.0677 13.2718 10.1172C13.3213 10.1666 13.3885 10.1944 13.4584 10.1944C13.5284 10.1944 13.5956 10.1666 13.645 10.1172C13.6945 10.0677 13.7223 10.0005 13.7223 9.93055V9.40278C13.7223 9.33279 13.6945 9.26567 13.645 9.21618C13.5956 9.16669 13.5284 9.13889 13.4584 9.13889Z" fill="white"/>
</svg>
