<svg width="19" height="15" viewBox="0 0 19 15" fill="none" xmlns="http://www.w3.org/2000/svg">
<path d="M0 13.0208V2.72917L1.1875 0.75H7.125L9.5 1.14583L11.875 0.75H17.8125L19 2.72917V13.0208L17.8125 15H11.875L9.5 14.6042L7.125 15H1.1875L0 13.0208Z" fill="#0053B5"/>
<path d="M0 5.5H19V10.25H0V5.5Z" fill="white"/>
<path d="M0 6.29166H19V9.45832H0V6.29166Z" fill="#D80027"/>
<path d="M7.125 0.75H11.875V15H7.125V0.75Z" fill="white"/>
<path d="M7.91663 0.75H11.0833V15H7.91663V0.75Z" fill="#D80027"/>
<path d="M19 0.75H17.8125L11.875 4.70833V5.89583L15.0417 5.5L19 2.72917V0.75Z" fill="white"/>
<path d="M19 0.75L11.875 5.5H13.8542L19 1.9375V0.75Z" fill="#D80027"/>
<path d="M0 0.75H1.1875L7.125 4.70833V5.89583L3.95833 5.5L0 2.72917V0.75Z" fill="white"/>
<path d="M0 0.75L7.125 5.5H5.14583L0 1.9375V0.75Z" fill="#D80027"/>
<path d="M0 15H1.1875L7.125 11.0417V9.85416L3.95833 10.25L0 13.0208V15Z" fill="white"/>
<path d="M0 15L7.125 10.25H5.14583L0 13.8125V15Z" fill="#D80027"/>
<path d="M19 15H17.8125L11.875 11.0417V9.85416L15.0417 10.25L19 13.0208V15Z" fill="white"/>
<path d="M19 15L11.875 10.25H13.8542L19 13.8125V15Z" fill="#D80027"/>
</svg>
