<svg width="36" height="32" viewBox="0 0 36 32" fill="none" xmlns="http://www.w3.org/2000/svg">
  <path d="M18 32C17.4875 32 16.9934 31.8145 16.6083 31.4775C15.154 30.207 13.7519 29.013 12.5148 27.9598L12.5085 27.9543C8.88162 24.8663 5.74969 22.1996 3.57056 19.5726C1.13461 16.6358 0 13.8513 0 10.8095C0 7.85401 1.01431 5.12743 2.8559 3.13162C4.71945 1.1122 7.27652 0 10.0569 0C12.1349 0 14.0381 0.656399 15.7132 1.95081C16.5586 2.60419 17.3249 3.40383 18 4.33657C18.6754 3.40383 19.4414 2.60419 20.2871 1.95081C21.9622 0.656399 23.8653 0 25.9434 0C28.7235 0 31.2808 1.1122 33.1444 3.13162C34.986 5.12743 36 7.85401 36 10.8095C36 13.8513 34.8657 16.6358 32.4297 19.5723C30.2506 22.1996 27.1189 24.8661 23.4926 27.9538C22.2534 29.0086 20.849 30.2045 19.3914 31.4781C19.0066 31.8145 18.5122 32 18 32ZM10.0569 2.10695C7.87253 2.10695 5.86588 2.97794 4.40607 4.55967C2.92456 6.16527 2.10855 8.38473 2.10855 10.8095C2.10855 13.3678 3.06024 15.6559 5.19406 18.2282C7.25647 20.7147 10.3241 23.3266 13.876 26.3509L13.8826 26.3564C15.1243 27.4137 16.532 28.6124 17.997 29.8922C19.4708 28.6099 20.8806 27.4093 22.1248 26.3504C25.6764 23.326 28.7438 20.7147 30.8062 18.2282C32.9398 15.6559 33.8914 13.3678 33.8914 10.8095C33.8914 8.38473 33.0754 6.16527 31.5939 4.55967C30.1344 2.97794 28.1275 2.10695 25.9434 2.10695C24.3432 2.10695 22.8741 2.61517 21.5769 3.61733C20.4208 4.51082 19.6155 5.64031 19.1434 6.43062C18.9006 6.83703 18.4732 7.07961 18 7.07961C17.5268 7.07961 17.0994 6.83703 16.8566 6.43062C16.3847 5.64031 15.5794 4.51082 14.4231 3.61733C13.1259 2.61517 11.6568 2.10695 10.0569 2.10695Z" fill="white"/>
</svg>