<svg width="36" height="36" viewBox="0 0 36 36" fill="none" xmlns="http://www.w3.org/2000/svg">
  <mask id="mask0_52_316" style="mask-type:luminance" maskUnits="userSpaceOnUse" x="0" y="0" width="36" height="36">
  <path d="M0 0H36V36H0V0Z" fill="white"/>
  </mask>
  <g mask="url(#mask0_52_316)">
  <path d="M21.3891 4.87134C22.6323 5.19218 23.8066 5.68471 24.8849 6.32245C24.8849 6.32245 25.4045 5.80277 25.988 5.21925C26.4117 4.79512 26.9866 4.55725 27.586 4.55725C28.1846 4.55725 28.7597 4.79512 29.1833 5.21925C29.6973 5.7333 30.2667 6.30262 30.7807 6.81668C31.2049 7.24031 31.4427 7.81532 31.4427 8.41404C31.4427 9.01338 31.2049 9.58832 30.7807 10.012C30.1972 10.5955 29.6776 11.1151 29.6776 11.1151C30.3152 12.1934 30.8078 13.3677 31.1287 14.611H32.6859C33.9337 14.611 34.9453 15.6226 34.9453 16.8703V19.1297C34.9453 20.3774 33.9337 21.3891 32.6859 21.3891H31.1287C30.8078 22.6323 30.3152 23.8066 29.6776 24.8849C29.6776 24.8849 30.1972 25.4046 30.7807 25.988C31.2049 26.4117 31.4427 26.9867 31.4427 27.586C31.4427 28.1847 31.2049 28.7597 30.7807 29.1834C30.2667 29.6973 29.6973 30.2667 29.1833 30.7807C28.7597 31.2049 28.1846 31.4427 27.586 31.4427C26.9866 31.4427 26.4117 31.2049 25.988 30.7807C25.4045 30.1972 24.8849 29.6776 24.8849 29.6776C23.8066 30.3153 22.6323 30.8079 21.3891 31.1286V32.6859C21.3891 33.9337 20.3774 34.9453 19.1296 34.9453H16.8703C15.6225 34.9453 14.6109 33.9337 14.6109 32.6859V31.1286C13.3677 30.8079 12.1934 30.3153 11.1151 29.6776C11.1151 29.6776 10.5955 30.1972 10.0119 30.7807C9.58831 31.2049 9.01329 31.4427 8.41402 31.4427C7.81531 31.4427 7.24022 31.2049 6.81666 30.7807C6.30267 30.2667 5.73328 29.6973 5.21923 29.1834C4.7951 28.7597 4.55724 28.1847 4.55724 27.586C4.55724 26.9867 4.7951 26.4117 5.21923 25.988C5.80275 25.4046 6.32243 24.8849 6.32243 24.8849C5.6847 23.8066 5.19223 22.6323 4.87132 21.3891H3.31411C2.06634 21.3891 1.05469 20.3774 1.05469 19.1297V16.8703C1.05469 15.6226 2.06634 14.611 3.31411 14.611H4.87132C5.19223 13.3677 5.6847 12.1934 6.32243 11.1151C6.32243 11.1151 5.80275 10.5955 5.21923 10.012C4.7951 9.58832 4.55724 9.01338 4.55724 8.41404C4.55724 7.81532 4.7951 7.24031 5.21923 6.81668C5.73328 6.30262 6.30267 5.7333 6.81666 5.21925C7.24022 4.79512 7.81531 4.55725 8.41402 4.55725C9.01329 4.55725 9.58831 4.79512 10.0119 5.21925C10.5955 5.80277 11.1151 6.32245 11.1151 6.32245C12.1934 5.68471 13.3677 5.19218 14.6109 4.87134V3.31406C14.6109 2.06629 15.6225 1.05471 16.8703 1.05471H19.1296C20.3774 1.05471 21.3891 2.06629 21.3891 3.31406V4.87134Z" stroke="white" stroke-width="2" stroke-miterlimit="10" stroke-linecap="round" stroke-linejoin="round"/>
  <path d="M18.0003 11.2219C21.7413 11.2219 24.7784 14.259 24.7784 18C24.7784 21.7409 21.7413 24.7781 18.0003 24.7781C14.2593 24.7781 11.2222 21.7409 11.2222 18C11.2222 14.259 14.2593 11.2219 18.0003 11.2219Z" stroke="white" stroke-width="2" stroke-miterlimit="10" stroke-linecap="round" stroke-linejoin="round"/>
  </g>
</svg>  