<svg width="35" height="35" viewBox="0 0 35 35" fill="none" xmlns="http://www.w3.org/2000/svg">
  <path d="M29.8744 5.12562C26.5691 1.82034 22.1743 0 17.5 0C12.8257 0 8.4309 1.82034 5.12562 5.12562C1.82034 8.4309 0 12.8257 0 17.5C0 22.1743 1.82034 26.5691 5.12562 29.8744C8.4309 33.1797 12.8257 35 17.5 35C22.1743 35 26.5691 33.1797 29.8744 29.8744C33.1797 26.5691 35 22.1743 35 17.5C35 12.8257 33.1797 8.4309 29.8744 5.12562ZM7.5951 29.3465C8.17295 24.3744 12.4478 20.5356 17.5 20.5356C20.1633 20.5356 22.6678 21.5733 24.5517 23.4569C26.1432 25.0486 27.1469 27.1269 27.4052 29.3462C24.7215 31.5938 21.2662 32.9492 17.5 32.9492C13.7338 32.9492 10.2787 31.594 7.5951 29.3465ZM17.5 18.4234C14.5694 18.4234 12.1848 16.0388 12.1848 13.1082C12.1848 10.1773 14.5694 7.79297 17.5 7.79297C20.4306 7.79297 22.8152 10.1773 22.8152 13.1082C22.8152 16.0388 20.4306 18.4234 17.5 18.4234ZM29.1702 27.6126C28.6477 25.5058 27.5579 23.5632 26.0017 22.0069C24.7413 20.7465 23.2502 19.801 21.624 19.2085C23.5789 17.8827 24.866 15.6428 24.866 13.1082C24.866 9.04667 21.5615 5.74219 17.5 5.74219C13.4385 5.74219 10.134 9.04667 10.134 13.1082C10.134 15.6441 11.4222 17.8848 13.3787 19.2103C11.8825 19.7556 10.498 20.5986 9.30676 21.7084C7.58175 23.3148 6.38386 25.3632 5.82844 27.611C3.47618 24.8994 2.05078 21.3631 2.05078 17.5C2.05078 8.98125 8.98125 2.05078 17.5 2.05078C26.0188 2.05078 32.9492 8.98125 32.9492 17.5C32.9492 21.3639 31.5233 24.901 29.1702 27.6126Z" fill="#303030"/>
</svg>