<svg width="55" height="60" viewBox="0 0 55 60" fill="none" xmlns="http://www.w3.org/2000/svg">
<path d="M53.7252 31.3456C50.9301 28.6008 47.6987 31.1698 47.6987 31.1698V16.7204C47.6987 16.2351 47.3001 15.8415 46.8082 15.8415C46.3158 15.8415 45.9171 16.2351 45.9171 16.7204V32.4062C45.9171 32.4062 41.6685 35.7099 39.8424 36.5174V10.5007C39.8424 9.29128 40.8397 8.30754 42.0658 8.30754H43.6937C44.9198 8.30754 45.9171 9.29128 45.9171 10.5007V13.1223C45.9171 13.608 46.3158 14.0012 46.8082 14.0012C47.3001 14.0012 47.6987 13.608 47.6987 13.1223V10.5007C47.6987 8.32219 45.9023 6.55017 43.6937 6.55017H42.0658C39.8572 6.55017 38.0603 8.32219 38.0603 10.5007V37.2141C37.5289 37.3611 36.9836 37.4609 36.4295 37.5135V18.9845C36.4295 16.795 34.6238 15.0138 32.4046 15.0138H30.816C28.5968 15.0138 26.7911 16.795 26.7911 18.9845V27.9393L25.1599 28.7935V25.8135C25.1599 23.8423 23.5342 22.2388 21.5364 22.2388H19.1454C17.1471 22.2388 15.5219 23.8423 15.5219 25.8135V33.8399L12.6126 35.3629L4.443 37.666C3.02153 38.0665 1.83442 38.9848 1.10118 40.251C0.367471 41.5176 0.168382 42.9925 0.540572 44.4038L1.45434 47.8719C1.57778 48.3415 2.06414 48.6231 2.54074 48.5013C3.01689 48.3791 3.30276 47.8993 3.17885 47.4292L2.26508 43.9616C1.73511 41.9502 2.9069 39.9269 4.93306 39.356L12.4024 37.2503L18.0163 52.0298C18.3922 53.0195 18.3328 55.843 15.3632 56.8835L9.71863 58.1483C7.75141 58.5886 5.81295 57.4255 5.30525 55.4992L4.15945 51.1499C4.03554 50.6803 3.54918 50.3983 3.07304 50.52C2.59643 50.6423 2.31103 51.122 2.43447 51.5921L3.58074 55.9418C4.22488 58.3854 6.42554 59.9999 8.8754 59.9999C10.6756 59.9999 15.7581 58.5973 15.7581 58.5973C17.3049 58.2513 18.6238 57.2625 19.3761 55.8855C19.997 54.7494 20.1813 53.442 19.9149 52.1964L39.4432 47.4805C41.0582 47.09 42.5915 46.3333 43.8761 45.2919L53.3795 37.5895C56.2767 35.0549 54.5773 32.1819 53.7252 31.3456ZM30.816 16.7716H32.4046C33.6414 16.7716 34.6475 17.7645 34.6475 18.9845V37.5575L29.0252 37.5552C28.5087 37.5506 28.866 37.2141 28.8943 37.1912L30.5135 35.8976C32.024 34.6905 33.0107 33.0123 33.4455 30.9089C33.7216 29.5745 33.2056 28.2387 32.0997 27.423C31.0667 26.6612 29.738 26.5148 28.5732 27.0183V18.9845C28.5732 17.7645 29.5793 16.7716 30.816 16.7716ZM17.304 25.8135C17.304 24.8119 18.13 23.9966 19.1454 23.9966H21.5364C22.5518 23.9966 23.3783 24.8119 23.3783 25.8135V29.7264L17.3035 32.907V25.8135H17.304ZM52.2485 36.2318L42.7447 43.9342C41.6652 44.8094 40.377 45.4452 39.0195 45.773L19.3473 50.5242L14.0568 36.5975L29.1625 28.6882C29.7765 28.3664 30.4759 28.42 31.0323 28.8306C31.5887 29.2412 31.8384 29.8867 31.6997 30.5578C31.3493 32.251 30.5729 33.5882 29.3918 34.5316L27.7726 35.8257C27.109 36.3558 26.8644 37.2114 27.1494 38.0056C27.4343 38.7994 28.1703 39.313 29.0242 39.313L35.5162 39.3157H35.5209C37.832 39.3157 40.053 38.6227 41.9437 37.3112L49.1991 32.2785C50.2149 31.5735 51.5826 31.698 52.4504 32.5742C52.9502 33.0778 53.9285 34.5742 52.2485 36.2318Z" fill="#E61F7F"/>
<path d="M14.6026 52.5931C14.6026 50.6838 13.028 49.1301 11.0923 49.1301C9.15665 49.1301 7.58203 50.6838 7.58203 52.5931C7.58203 54.502 9.15665 56.0557 11.0923 56.0557C13.028 56.0557 14.6026 54.502 14.6026 52.5931ZM9.36409 52.5931C9.36409 51.6529 10.1391 50.888 11.0923 50.888C12.0451 50.888 12.8205 51.6529 12.8205 52.5931C12.8205 53.5329 12.0455 54.2979 11.0923 54.2979C10.1391 54.2979 9.36409 53.5329 9.36409 52.5931Z" fill="#E61F7F"/>
<path d="M4.685 27.5956L17.6374 14.7209L20.5509 16.2072C21.5946 16.7396 22.8648 16.5574 23.7112 15.7536L30.7615 9.05921C30.7615 9.05921 30.5675 12.4975 33.5028 12.4975C35.0138 12.4975 36.2436 11.2844 36.2436 9.79346V2.70357C36.2436 2.69533 36.2432 2.68663 36.2432 2.67794C36.2334 0.8281 34.8621 0 33.5028 0H26.3778C24.8663 0 23.637 1.21308 23.637 2.70357C23.637 5.67539 26.7031 5.40714 26.7031 5.40714L21.3245 10.514L18.3688 9.0061C17.3 8.46045 16.0122 8.66049 15.1639 9.50278L0.794172 23.7865C-0.270421 24.8448 -0.263924 26.5601 0.809023 27.6102C1.326 28.116 3.09135 29.1675 4.685 27.5956ZM2.05878 25.0247L16.4285 10.741C16.6141 10.557 16.912 10.2347 17.5501 10.5675L21.073 12.3647C21.4122 12.5378 21.8252 12.4787 22.1004 12.2173L29.5312 5.16178C29.793 4.91321 29.8756 4.53235 29.7396 4.20001C29.6036 3.86721 29.2769 3.64977 28.9131 3.64977H26.3778C25.8492 3.64977 25.419 3.22543 25.419 2.70357C25.419 2.18217 25.8492 1.75782 26.3778 1.75782H33.5028C33.765 1.75782 34.4611 1.75782 34.4611 2.69808C34.4611 2.70586 34.4616 2.71364 34.4616 2.72188V9.79346C34.4616 10.3149 34.0314 10.7392 33.5028 10.7392C32.9738 10.7392 32.5436 10.3149 32.5436 9.79346V6.9933C32.5436 6.64082 32.3301 6.32222 32.0015 6.18443C31.673 6.04618 31.2924 6.11576 31.0348 6.36021L22.4754 14.4874C22.1793 14.7685 21.7347 14.8326 21.37 14.6462L17.8755 12.8632C17.5297 12.687 17.1079 12.7525 16.8336 13.0248L3.42039 26.3573C2.83565 26.9341 2.24488 26.5395 2.06389 26.3623C1.68891 25.9947 1.68659 25.3946 2.05878 25.0247Z" fill="#E61F7F"/>
</svg>
